<svg version="1.1" xmlns="http://www.w3.org/2000/svg" xmlns:xlink="http://www.w3.org/1999/xlink" stroke-linecap="round" stroke-linejoin="round" stroke-width="0" fill-rule="evenodd" clip-rule="evenodd" id="xbRTcI0VbvgV8TMkDC1-_bottom" viewBox="0 0 130000 60000" width="130mm" height="60mm" class="w-100 h-100"><defs><style>.xbRTcI0VbvgV8TMkDC1-_fr4 {color: #666666;}
.xbRTcI0VbvgV8TMkDC1-_cu {color: #cccccc;}
.xbRTcI0VbvgV8TMkDC1-_cf {color: #cc9933;}
.xbRTcI0VbvgV8TMkDC1-_sm {color: #004200; opacity: 0.75;}
.xbRTcI0VbvgV8TMkDC1-_ss {color: #ffffff;}
.xbRTcI0VbvgV8TMkDC1-_sp {color: #999999;}
.xbRTcI0VbvgV8TMkDC1-_out {color: #000000;}</style><circle cx="0" cy="0" r="554" id="JFHXenYeR670RLkmutDc_pad-10"/><circle cx="0" cy="0" r="579" id="JFHXenYeR670RLkmutDc_pad-12"/><circle cx="0" cy="0" r="939.8" id="JFHXenYeR670RLkmutDc_pad-13"/><circle cx="0" cy="0" r="276.6" id="SjrhcGAjnSnYyHjRW8JG_pad-10"/><circle cx="0" cy="0" r="1601.6" id="SjrhcGAjnSnYyHjRW8JG_pad-11"/><circle cx="0" cy="0" r="655.6" id="SjrhcGAjnSnYyHjRW8JG_pad-12"/><circle cx="0" cy="0" r="680.6" id="SjrhcGAjnSnYyHjRW8JG_pad-14"/><circle cx="0" cy="0" r="1041.4" id="SjrhcGAjnSnYyHjRW8JG_pad-15"/><circle cx="0" cy="0" r="1500" id="M24r0OHOdb3Ik35MUQVf_pad-1"/><circle cx="0" cy="0" r="508" id="M24r0OHOdb3Ik35MUQVf_pad-2"/><circle cx="0" cy="0" r="400" id="M24r0OHOdb3Ik35MUQVf_pad-3"/><circle cx="0" cy="0" r="325" id="M24r0OHOdb3Ik35MUQVf_pad-4"/><circle cx="0" cy="0" r="300" id="M24r0OHOdb3Ik35MUQVf_pad-5"/><circle cx="0" cy="0" r="175" id="M24r0OHOdb3Ik35MUQVf_pad-6"/><g id="xbRTcI0VbvgV8TMkDC1-_bottom_copper"><use xlink:href="#JFHXenYeR670RLkmutDc_pad-10" x="107950" y="12700"/><use xlink:href="#JFHXenYeR670RLkmutDc_pad-10" x="107950" y="10160"/><use xlink:href="#JFHXenYeR670RLkmutDc_pad-10" x="107950" y="7620"/><use xlink:href="#JFHXenYeR670RLkmutDc_pad-10" x="107950" y="5080"/><path d="M 107569 41910 105791 41910 M 105791 44450 107569 44450 M 107569 39370 105791 39370 M 105791 36830 107569 36830 M 107569 34290 105791 34290 M 105791 46990 107569 46990 M 107569 49530 105791 49530 M 105791 52070 107569 52070" fill="none" stroke-width="1778"/><use xlink:href="#JFHXenYeR670RLkmutDc_pad-12" x="60960" y="48776"/><use xlink:href="#JFHXenYeR670RLkmutDc_pad-10" x="60960" y="46236"/><use xlink:href="#JFHXenYeR670RLkmutDc_pad-10" x="60960" y="43696"/><use xlink:href="#JFHXenYeR670RLkmutDc_pad-10" x="60960" y="41156"/><use xlink:href="#JFHXenYeR670RLkmutDc_pad-10" x="60960" y="38616"/><use xlink:href="#JFHXenYeR670RLkmutDc_pad-10" x="60960" y="36076"/><use xlink:href="#JFHXenYeR670RLkmutDc_pad-10" x="60960" y="33536"/><use xlink:href="#JFHXenYeR670RLkmutDc_pad-10" x="60960" y="30996"/><use xlink:href="#JFHXenYeR670RLkmutDc_pad-10" x="60960" y="28456"/><use xlink:href="#JFHXenYeR670RLkmutDc_pad-10" x="60960" y="25916"/><use xlink:href="#JFHXenYeR670RLkmutDc_pad-10" x="60960" y="23376"/><use xlink:href="#JFHXenYeR670RLkmutDc_pad-10" x="60960" y="20836"/><use xlink:href="#JFHXenYeR670RLkmutDc_pad-10" x="60960" y="18296"/><use xlink:href="#JFHXenYeR670RLkmutDc_pad-10" x="60960" y="15756"/><use xlink:href="#JFHXenYeR670RLkmutDc_pad-10" x="60960" y="13216"/><use xlink:href="#JFHXenYeR670RLkmutDc_pad-10" x="86210" y="13216"/><use xlink:href="#JFHXenYeR670RLkmutDc_pad-10" x="86210" y="15756"/><use xlink:href="#JFHXenYeR670RLkmutDc_pad-10" x="86210" y="18296"/><use xlink:href="#JFHXenYeR670RLkmutDc_pad-10" x="86210" y="20836"/><use xlink:href="#JFHXenYeR670RLkmutDc_pad-10" x="86210" y="23376"/><use xlink:href="#JFHXenYeR670RLkmutDc_pad-10" x="86210" y="25916"/><use xlink:href="#JFHXenYeR670RLkmutDc_pad-10" x="86210" y="28456"/><use xlink:href="#JFHXenYeR670RLkmutDc_pad-10" x="86210" y="30996"/><use xlink:href="#JFHXenYeR670RLkmutDc_pad-10" x="86210" y="33536"/><use xlink:href="#JFHXenYeR670RLkmutDc_pad-10" x="86210" y="36076"/><use xlink:href="#JFHXenYeR670RLkmutDc_pad-10" x="86210" y="38616"/><use xlink:href="#JFHXenYeR670RLkmutDc_pad-10" x="86210" y="41156"/><use xlink:href="#JFHXenYeR670RLkmutDc_pad-10" x="86210" y="43696"/><use xlink:href="#JFHXenYeR670RLkmutDc_pad-10" x="86210" y="46236"/><use xlink:href="#JFHXenYeR670RLkmutDc_pad-10" x="86210" y="48776"/><use xlink:href="#JFHXenYeR670RLkmutDc_pad-13" x="119380" y="19050"/><use xlink:href="#JFHXenYeR670RLkmutDc_pad-13" x="116840" y="19050"/><use xlink:href="#JFHXenYeR670RLkmutDc_pad-13" x="114300" y="19050"/><use xlink:href="#JFHXenYeR670RLkmutDc_pad-13" x="119380" y="25400"/><use xlink:href="#JFHXenYeR670RLkmutDc_pad-13" x="116840" y="25400"/><use xlink:href="#JFHXenYeR670RLkmutDc_pad-13" x="114300" y="25400"/><use xlink:href="#JFHXenYeR670RLkmutDc_pad-13" x="119380" y="31750"/><use xlink:href="#JFHXenYeR670RLkmutDc_pad-13" x="116840" y="31750"/><use xlink:href="#JFHXenYeR670RLkmutDc_pad-13" x="114300" y="31750"/><use xlink:href="#JFHXenYeR670RLkmutDc_pad-13" x="119380" y="36830"/><use xlink:href="#JFHXenYeR670RLkmutDc_pad-13" x="116840" y="36830"/><use xlink:href="#JFHXenYeR670RLkmutDc_pad-13" x="114300" y="36830"/><path d="M 43228 24003 42370 24003 M 42370 31873 43228 31873 M 8228 31873 7370 31873 M 7370 24003 8228 24003 M 42370 5461 43228 5461 M 43228 13331 42370 13331 M 8228 13331 7370 13331 M 7370 5461 8228 5461" fill="none" stroke-width="858"/><use xlink:href="#JFHXenYeR670RLkmutDc_pad-13" x="114300" y="12014.2"/><use xlink:href="#JFHXenYeR670RLkmutDc_pad-13" x="116840" y="12014.2"/><use xlink:href="#JFHXenYeR670RLkmutDc_pad-13" x="119380" y="12014.2"/><path d="M 84500 34000 61000 34000 M 84500 34000 84500 38500 85500 39500 106500 39500 M 61000 34000 60960 33536 M 106500 39500 106680 39370 M 63000 36500 61000 36500 M 63000 36500 74000 47500 104500 47500 104500 44000 106500 42000 M 61000 36500 60960 36076 M 106500 42000 106680 41910 M 88500 25500 86500 25500 M 88500 25500 104000 10000 107500 10000 M 86500 25500 86210 25916 M 107500 10000 107950 10160 M 101500 13000 86500 28000 M 101500 13000 107500 13000 M 86500 28000 86210 28456 M 107500 13000 107950 12700 M 104000 46000 86500 46000 M 104000 46000 104000 42000 105500 40500 121000 40500 121000 33500 119500 32000 M 86500 46000 86210 46236 M 119380 31750 119500 32000 M 105000 38500 86500 38500 M 105000 38500 105500 38000 115500 38000 115500 29000 119000 25500 M 86500 38500 86210 38616 M 119000 25500 119380 25400 M 112000 10500 86500 36000 M 112000 10500 115500 10500 115500 15500 119000 19000 M 86500 36000 86210 36076 M 119000 19000 119380 19050 M 121000 27500 117000 31500 M 121000 27500 121000 16500 117000 12500 M 117000 31500 116840 31750 M 117000 12500 116840 12014.2 M 114500 19500 114500 25000 M 114500 19500 114300 19050 M 114500 25000 114300 25400 M 42500 31500 41500 30500 M 41500 16000 41500 14500 M 41500 16000 41500 30500 M 41500 14500 42500 13500 M 42500 31500 42799 31873 M 42500 13500 42799 13331 M 41500 16000 60000 16000 60500 16000 60960 15756 M 116000 9000 119000 12000 M 116000 9000 60000 9000 60000 16000 M 119000 12000 119380 12014.2 M 86000 34000 85000 35000 85000 36000 86000 37000 104500 37000 104500 23500 114000 14000 114000 12500 M 86210 33536 86000 34000 M 114000 12500 114300 12014.2" fill="none" stroke-width="152.4"/></g><g id="xbRTcI0VbvgV8TMkDC1-_bottom_soldermask"><use xlink:href="#SjrhcGAjnSnYyHjRW8JG_pad-10" x="-21590" y="58420"/><use xlink:href="#SjrhcGAjnSnYyHjRW8JG_pad-11" x="2516" y="57484"/><use xlink:href="#SjrhcGAjnSnYyHjRW8JG_pad-11" x="127516" y="57484"/><use xlink:href="#SjrhcGAjnSnYyHjRW8JG_pad-11" x="2516" y="2484"/><use xlink:href="#SjrhcGAjnSnYyHjRW8JG_pad-11" x="127516" y="2484"/><use xlink:href="#SjrhcGAjnSnYyHjRW8JG_pad-12" x="107950" y="12700"/><use xlink:href="#SjrhcGAjnSnYyHjRW8JG_pad-12" x="107950" y="10160"/><use xlink:href="#SjrhcGAjnSnYyHjRW8JG_pad-12" x="107950" y="7620"/><use xlink:href="#SjrhcGAjnSnYyHjRW8JG_pad-12" x="107950" y="5080"/><path d="M 107569 41910 105791 41910 M 105791 44450 107569 44450 M 107569 39370 105791 39370 M 105791 36830 107569 36830 M 107569 34290 105791 34290 M 105791 46990 107569 46990 M 107569 49530 105791 49530 M 105791 52070 107569 52070" fill="none" stroke-width="1981.2"/><use xlink:href="#SjrhcGAjnSnYyHjRW8JG_pad-14" x="60960" y="48776"/><use xlink:href="#SjrhcGAjnSnYyHjRW8JG_pad-12" x="60960" y="46236"/><use xlink:href="#SjrhcGAjnSnYyHjRW8JG_pad-12" x="60960" y="43696"/><use xlink:href="#SjrhcGAjnSnYyHjRW8JG_pad-12" x="60960" y="41156"/><use xlink:href="#SjrhcGAjnSnYyHjRW8JG_pad-12" x="60960" y="38616"/><use xlink:href="#SjrhcGAjnSnYyHjRW8JG_pad-12" x="60960" y="36076"/><use xlink:href="#SjrhcGAjnSnYyHjRW8JG_pad-12" x="60960" y="33536"/><use xlink:href="#SjrhcGAjnSnYyHjRW8JG_pad-12" x="60960" y="30996"/><use xlink:href="#SjrhcGAjnSnYyHjRW8JG_pad-12" x="60960" y="28456"/><use xlink:href="#SjrhcGAjnSnYyHjRW8JG_pad-12" x="60960" y="25916"/><use xlink:href="#SjrhcGAjnSnYyHjRW8JG_pad-12" x="60960" y="23376"/><use xlink:href="#SjrhcGAjnSnYyHjRW8JG_pad-12" x="60960" y="20836"/><use xlink:href="#SjrhcGAjnSnYyHjRW8JG_pad-12" x="60960" y="18296"/><use xlink:href="#SjrhcGAjnSnYyHjRW8JG_pad-12" x="60960" y="15756"/><use xlink:href="#SjrhcGAjnSnYyHjRW8JG_pad-12" x="60960" y="13216"/><use xlink:href="#SjrhcGAjnSnYyHjRW8JG_pad-12" x="86210" y="13216"/><use xlink:href="#SjrhcGAjnSnYyHjRW8JG_pad-12" x="86210" y="15756"/><use xlink:href="#SjrhcGAjnSnYyHjRW8JG_pad-12" x="86210" y="18296"/><use xlink:href="#SjrhcGAjnSnYyHjRW8JG_pad-12" x="86210" y="20836"/><use xlink:href="#SjrhcGAjnSnYyHjRW8JG_pad-12" x="86210" y="23376"/><use xlink:href="#SjrhcGAjnSnYyHjRW8JG_pad-12" x="86210" y="25916"/><use xlink:href="#SjrhcGAjnSnYyHjRW8JG_pad-12" x="86210" y="28456"/><use xlink:href="#SjrhcGAjnSnYyHjRW8JG_pad-12" x="86210" y="30996"/><use xlink:href="#SjrhcGAjnSnYyHjRW8JG_pad-12" x="86210" y="33536"/><use xlink:href="#SjrhcGAjnSnYyHjRW8JG_pad-12" x="86210" y="36076"/><use xlink:href="#SjrhcGAjnSnYyHjRW8JG_pad-12" x="86210" y="38616"/><use xlink:href="#SjrhcGAjnSnYyHjRW8JG_pad-12" x="86210" y="41156"/><use xlink:href="#SjrhcGAjnSnYyHjRW8JG_pad-12" x="86210" y="43696"/><use xlink:href="#SjrhcGAjnSnYyHjRW8JG_pad-12" x="86210" y="46236"/><use xlink:href="#SjrhcGAjnSnYyHjRW8JG_pad-12" x="86210" y="48776"/><use xlink:href="#SjrhcGAjnSnYyHjRW8JG_pad-15" x="119380" y="19050"/><use xlink:href="#SjrhcGAjnSnYyHjRW8JG_pad-15" x="116840" y="19050"/><use xlink:href="#SjrhcGAjnSnYyHjRW8JG_pad-15" x="114300" y="19050"/><use xlink:href="#SjrhcGAjnSnYyHjRW8JG_pad-15" x="119380" y="25400"/><use xlink:href="#SjrhcGAjnSnYyHjRW8JG_pad-15" x="116840" y="25400"/><use xlink:href="#SjrhcGAjnSnYyHjRW8JG_pad-15" x="114300" y="25400"/><use xlink:href="#SjrhcGAjnSnYyHjRW8JG_pad-15" x="119380" y="31750"/><use xlink:href="#SjrhcGAjnSnYyHjRW8JG_pad-15" x="116840" y="31750"/><use xlink:href="#SjrhcGAjnSnYyHjRW8JG_pad-15" x="114300" y="31750"/><use xlink:href="#SjrhcGAjnSnYyHjRW8JG_pad-15" x="119380" y="36830"/><use xlink:href="#SjrhcGAjnSnYyHjRW8JG_pad-15" x="116840" y="36830"/><use xlink:href="#SjrhcGAjnSnYyHjRW8JG_pad-15" x="114300" y="36830"/><path d="M 43228 24003 42370 24003 M 42370 31873 43228 31873 M 8228 31873 7370 31873 M 7370 24003 8228 24003 M 42370 5461 43228 5461 M 43228 13331 42370 13331 M 8228 13331 7370 13331 M 7370 5461 8228 5461" fill="none" stroke-width="1061.2"/><use xlink:href="#SjrhcGAjnSnYyHjRW8JG_pad-15" x="114300" y="12014.2"/><use xlink:href="#SjrhcGAjnSnYyHjRW8JG_pad-15" x="116840" y="12014.2"/><use xlink:href="#SjrhcGAjnSnYyHjRW8JG_pad-15" x="119380" y="12014.2"/></g><g id="xbRTcI0VbvgV8TMkDC1-_bottom_drill1"><use xlink:href="#M24r0OHOdb3Ik35MUQVf_pad-1" x="2516" y="57484"/><use xlink:href="#M24r0OHOdb3Ik35MUQVf_pad-1" x="127516" y="57484"/><use xlink:href="#M24r0OHOdb3Ik35MUQVf_pad-1" x="2516" y="2484"/><use xlink:href="#M24r0OHOdb3Ik35MUQVf_pad-1" x="127516" y="2484"/><use xlink:href="#M24r0OHOdb3Ik35MUQVf_pad-2" x="119380" y="19050"/><use xlink:href="#M24r0OHOdb3Ik35MUQVf_pad-2" x="119380" y="12014"/><use xlink:href="#M24r0OHOdb3Ik35MUQVf_pad-2" x="116840" y="19050"/><use xlink:href="#M24r0OHOdb3Ik35MUQVf_pad-2" x="114300" y="19050"/><use xlink:href="#M24r0OHOdb3Ik35MUQVf_pad-2" x="119380" y="25400"/><use xlink:href="#M24r0OHOdb3Ik35MUQVf_pad-2" x="116840" y="25400"/><use xlink:href="#M24r0OHOdb3Ik35MUQVf_pad-2" x="114300" y="25400"/><use xlink:href="#M24r0OHOdb3Ik35MUQVf_pad-2" x="119380" y="31750"/><use xlink:href="#M24r0OHOdb3Ik35MUQVf_pad-2" x="116840" y="31750"/><use xlink:href="#M24r0OHOdb3Ik35MUQVf_pad-2" x="114300" y="31750"/><use xlink:href="#M24r0OHOdb3Ik35MUQVf_pad-2" x="119380" y="36830"/><use xlink:href="#M24r0OHOdb3Ik35MUQVf_pad-2" x="116840" y="36830"/><use xlink:href="#M24r0OHOdb3Ik35MUQVf_pad-2" x="114300" y="36830"/><use xlink:href="#M24r0OHOdb3Ik35MUQVf_pad-2" x="114300" y="12014"/><use xlink:href="#M24r0OHOdb3Ik35MUQVf_pad-2" x="116840" y="12014"/><use xlink:href="#M24r0OHOdb3Ik35MUQVf_pad-3" x="106680" y="52070"/><use xlink:href="#M24r0OHOdb3Ik35MUQVf_pad-3" x="106680" y="49530"/><use xlink:href="#M24r0OHOdb3Ik35MUQVf_pad-3" x="106680" y="41910"/><use xlink:href="#M24r0OHOdb3Ik35MUQVf_pad-3" x="106680" y="44450"/><use xlink:href="#M24r0OHOdb3Ik35MUQVf_pad-3" x="106680" y="39370"/><use xlink:href="#M24r0OHOdb3Ik35MUQVf_pad-3" x="106680" y="36830"/><use xlink:href="#M24r0OHOdb3Ik35MUQVf_pad-3" x="106680" y="34290"/><use xlink:href="#M24r0OHOdb3Ik35MUQVf_pad-3" x="106680" y="46990"/><use xlink:href="#M24r0OHOdb3Ik35MUQVf_pad-4" x="60960" y="48776"/><use xlink:href="#M24r0OHOdb3Ik35MUQVf_pad-5" x="60960" y="20836"/><use xlink:href="#M24r0OHOdb3Ik35MUQVf_pad-5" x="60960" y="18296"/><use xlink:href="#M24r0OHOdb3Ik35MUQVf_pad-5" x="60960" y="15756"/><use xlink:href="#M24r0OHOdb3Ik35MUQVf_pad-5" x="60960" y="13216"/><use xlink:href="#M24r0OHOdb3Ik35MUQVf_pad-5" x="86210" y="13216"/><use xlink:href="#M24r0OHOdb3Ik35MUQVf_pad-5" x="86210" y="15756"/><use xlink:href="#M24r0OHOdb3Ik35MUQVf_pad-5" x="86210" y="18296"/><use xlink:href="#M24r0OHOdb3Ik35MUQVf_pad-5" x="107950" y="5080"/><use xlink:href="#M24r0OHOdb3Ik35MUQVf_pad-5" x="86210" y="23376"/><use xlink:href="#M24r0OHOdb3Ik35MUQVf_pad-5" x="86210" y="25916"/><use xlink:href="#M24r0OHOdb3Ik35MUQVf_pad-5" x="86210" y="28456"/><use xlink:href="#M24r0OHOdb3Ik35MUQVf_pad-5" x="86210" y="30996"/><use xlink:href="#M24r0OHOdb3Ik35MUQVf_pad-5" x="86210" y="33536"/><use xlink:href="#M24r0OHOdb3Ik35MUQVf_pad-5" x="86210" y="36076"/><use xlink:href="#M24r0OHOdb3Ik35MUQVf_pad-5" x="86210" y="38616"/><use xlink:href="#M24r0OHOdb3Ik35MUQVf_pad-5" x="86210" y="41156"/><use xlink:href="#M24r0OHOdb3Ik35MUQVf_pad-5" x="86210" y="43696"/><use xlink:href="#M24r0OHOdb3Ik35MUQVf_pad-5" x="86210" y="46236"/><use xlink:href="#M24r0OHOdb3Ik35MUQVf_pad-5" x="86210" y="48776"/><use xlink:href="#M24r0OHOdb3Ik35MUQVf_pad-5" x="107950" y="12700"/><use xlink:href="#M24r0OHOdb3Ik35MUQVf_pad-5" x="107950" y="10160"/><use xlink:href="#M24r0OHOdb3Ik35MUQVf_pad-5" x="107950" y="7620"/><use xlink:href="#M24r0OHOdb3Ik35MUQVf_pad-5" x="60960" y="46236"/><use xlink:href="#M24r0OHOdb3Ik35MUQVf_pad-5" x="60960" y="43696"/><use xlink:href="#M24r0OHOdb3Ik35MUQVf_pad-5" x="60960" y="41156"/><use xlink:href="#M24r0OHOdb3Ik35MUQVf_pad-5" x="60960" y="38616"/><use xlink:href="#M24r0OHOdb3Ik35MUQVf_pad-5" x="60960" y="36076"/><use xlink:href="#M24r0OHOdb3Ik35MUQVf_pad-5" x="60960" y="33536"/><use xlink:href="#M24r0OHOdb3Ik35MUQVf_pad-5" x="60960" y="30996"/><use xlink:href="#M24r0OHOdb3Ik35MUQVf_pad-5" x="60960" y="28456"/><use xlink:href="#M24r0OHOdb3Ik35MUQVf_pad-5" x="86210" y="20836"/><use xlink:href="#M24r0OHOdb3Ik35MUQVf_pad-5" x="60960" y="25916"/><use xlink:href="#M24r0OHOdb3Ik35MUQVf_pad-5" x="60960" y="23376"/><use xlink:href="#M24r0OHOdb3Ik35MUQVf_pad-6" x="-21590" y="58420"/><use xlink:href="#M24r0OHOdb3Ik35MUQVf_pad-6" x="7799" y="24003"/><use xlink:href="#M24r0OHOdb3Ik35MUQVf_pad-6" x="42799" y="5461"/><use xlink:href="#M24r0OHOdb3Ik35MUQVf_pad-6" x="42799" y="13331"/><use xlink:href="#M24r0OHOdb3Ik35MUQVf_pad-6" x="7799" y="13331"/><use xlink:href="#M24r0OHOdb3Ik35MUQVf_pad-6" x="7799" y="5461"/><use xlink:href="#M24r0OHOdb3Ik35MUQVf_pad-6" x="42799" y="24003"/><use xlink:href="#M24r0OHOdb3Ik35MUQVf_pad-6" x="42799" y="31873"/><use xlink:href="#M24r0OHOdb3Ik35MUQVf_pad-6" x="7799" y="31873"/></g><clipPath id="xbRTcI0VbvgV8TMkDC1-_bottom_outline"><path d="M 0 0 130000 0 130000 60000 0 60000 0 0" fill="none" stroke-width="254"/></clipPath><mask id="xbRTcI0VbvgV8TMkDC1-_bottom_mech-mask"><g fill="#000" stroke="#000"><rect x="0" y="0" width="130000" height="60000" fill="#fff"/><use xlink:href="#xbRTcI0VbvgV8TMkDC1-_bottom_drill1"/></g></mask><mask id="xbRTcI0VbvgV8TMkDC1-_bottom_cf-mask"><g fill="#fff" stroke="#fff"><use xlink:href="#xbRTcI0VbvgV8TMkDC1-_bottom_soldermask"/></g></mask><mask id="xbRTcI0VbvgV8TMkDC1-_bottom_sm-mask"><g fill="#000" stroke="#000"><rect x="0" y="0" width="130000" height="60000" fill="#fff"/><use xlink:href="#xbRTcI0VbvgV8TMkDC1-_bottom_soldermask"/></g></mask></defs><g transform="translate(0,60000) scale(1,-1)"><g mask="url(#xbRTcI0VbvgV8TMkDC1-_bottom_mech-mask)" clip-path="url(#xbRTcI0VbvgV8TMkDC1-_bottom_outline)" transform="translate(130000,0) scale(-1,1)"><rect x="0" y="0" width="130000" height="60000" fill="currentColor" class="xbRTcI0VbvgV8TMkDC1-_fr4"/><use xlink:href="#xbRTcI0VbvgV8TMkDC1-_bottom_copper" fill="currentColor" stroke="currentColor" class="xbRTcI0VbvgV8TMkDC1-_cu"/><use xlink:href="#xbRTcI0VbvgV8TMkDC1-_bottom_copper" fill="currentColor" stroke="currentColor" class="xbRTcI0VbvgV8TMkDC1-_cf" mask="url(#xbRTcI0VbvgV8TMkDC1-_bottom_cf-mask)"/><g mask="url(#xbRTcI0VbvgV8TMkDC1-_bottom_sm-mask)"><rect x="0" y="0" width="130000" height="60000" fill="currentColor" class="xbRTcI0VbvgV8TMkDC1-_sm"/></g></g></g></svg>