<svg version="1.1" xmlns="http://www.w3.org/2000/svg" xmlns:xlink="http://www.w3.org/1999/xlink" stroke-linecap="round" stroke-linejoin="round" stroke-width="0" fill-rule="evenodd" width="113.896mm" height="54.6162mm" viewBox="6423.8 2923.8 113896 54616.2" id="n9wyaBM-cYMUYj4OVL4W"><defs><circle cx="0" cy="0" r="554" id="n9wyaBM-cYMUYj4OVL4W_pad-10"/><circle cx="0" cy="0" r="579" id="n9wyaBM-cYMUYj4OVL4W_pad-12"/><circle cx="0" cy="0" r="939.8" id="n9wyaBM-cYMUYj4OVL4W_pad-13"/><rect x="-2300" y="-500" width="4600" height="1000" id="n9wyaBM-cYMUYj4OVL4W_pad-17"/><rect x="-1700" y="-800" width="3400" height="1600" id="n9wyaBM-cYMUYj4OVL4W_pad-18"/></defs><g transform="translate(0,60463.799999999996) scale(1,-1)" fill="currentColor" stroke="currentColor"><use xlink:href="#n9wyaBM-cYMUYj4OVL4W_pad-10" x="107950" y="12700"/><use xlink:href="#n9wyaBM-cYMUYj4OVL4W_pad-10" x="107950" y="10160"/><use xlink:href="#n9wyaBM-cYMUYj4OVL4W_pad-10" x="107950" y="7620"/><use xlink:href="#n9wyaBM-cYMUYj4OVL4W_pad-10" x="107950" y="5080"/><path d="M 107569 41910 105791 41910 M 105791 44450 107569 44450 M 107569 39370 105791 39370 M 105791 36830 107569 36830 M 107569 34290 105791 34290 M 105791 46990 107569 46990 M 107569 49530 105791 49530 M 105791 52070 107569 52070" fill="none" stroke-width="1778"/><use xlink:href="#n9wyaBM-cYMUYj4OVL4W_pad-12" x="60960" y="48776"/><use xlink:href="#n9wyaBM-cYMUYj4OVL4W_pad-10" x="60960" y="46236"/><use xlink:href="#n9wyaBM-cYMUYj4OVL4W_pad-10" x="60960" y="43696"/><use xlink:href="#n9wyaBM-cYMUYj4OVL4W_pad-10" x="60960" y="41156"/><use xlink:href="#n9wyaBM-cYMUYj4OVL4W_pad-10" x="60960" y="38616"/><use xlink:href="#n9wyaBM-cYMUYj4OVL4W_pad-10" x="60960" y="36076"/><use xlink:href="#n9wyaBM-cYMUYj4OVL4W_pad-10" x="60960" y="33536"/><use xlink:href="#n9wyaBM-cYMUYj4OVL4W_pad-10" x="60960" y="30996"/><use xlink:href="#n9wyaBM-cYMUYj4OVL4W_pad-10" x="60960" y="28456"/><use xlink:href="#n9wyaBM-cYMUYj4OVL4W_pad-10" x="60960" y="25916"/><use xlink:href="#n9wyaBM-cYMUYj4OVL4W_pad-10" x="60960" y="23376"/><use xlink:href="#n9wyaBM-cYMUYj4OVL4W_pad-10" x="60960" y="20836"/><use xlink:href="#n9wyaBM-cYMUYj4OVL4W_pad-10" x="60960" y="18296"/><use xlink:href="#n9wyaBM-cYMUYj4OVL4W_pad-10" x="60960" y="15756"/><use xlink:href="#n9wyaBM-cYMUYj4OVL4W_pad-10" x="60960" y="13216"/><use xlink:href="#n9wyaBM-cYMUYj4OVL4W_pad-10" x="86210" y="13216"/><use xlink:href="#n9wyaBM-cYMUYj4OVL4W_pad-10" x="86210" y="15756"/><use xlink:href="#n9wyaBM-cYMUYj4OVL4W_pad-10" x="86210" y="18296"/><use xlink:href="#n9wyaBM-cYMUYj4OVL4W_pad-10" x="86210" y="20836"/><use xlink:href="#n9wyaBM-cYMUYj4OVL4W_pad-10" x="86210" y="23376"/><use xlink:href="#n9wyaBM-cYMUYj4OVL4W_pad-10" x="86210" y="25916"/><use xlink:href="#n9wyaBM-cYMUYj4OVL4W_pad-10" x="86210" y="28456"/><use xlink:href="#n9wyaBM-cYMUYj4OVL4W_pad-10" x="86210" y="30996"/><use xlink:href="#n9wyaBM-cYMUYj4OVL4W_pad-10" x="86210" y="33536"/><use xlink:href="#n9wyaBM-cYMUYj4OVL4W_pad-10" x="86210" y="36076"/><use xlink:href="#n9wyaBM-cYMUYj4OVL4W_pad-10" x="86210" y="38616"/><use xlink:href="#n9wyaBM-cYMUYj4OVL4W_pad-10" x="86210" y="41156"/><use xlink:href="#n9wyaBM-cYMUYj4OVL4W_pad-10" x="86210" y="43696"/><use xlink:href="#n9wyaBM-cYMUYj4OVL4W_pad-10" x="86210" y="46236"/><use xlink:href="#n9wyaBM-cYMUYj4OVL4W_pad-10" x="86210" y="48776"/><use xlink:href="#n9wyaBM-cYMUYj4OVL4W_pad-13" x="119380" y="19050"/><use xlink:href="#n9wyaBM-cYMUYj4OVL4W_pad-13" x="116840" y="19050"/><use xlink:href="#n9wyaBM-cYMUYj4OVL4W_pad-13" x="114300" y="19050"/><use xlink:href="#n9wyaBM-cYMUYj4OVL4W_pad-13" x="119380" y="25400"/><use xlink:href="#n9wyaBM-cYMUYj4OVL4W_pad-13" x="116840" y="25400"/><use xlink:href="#n9wyaBM-cYMUYj4OVL4W_pad-13" x="114300" y="25400"/><use xlink:href="#n9wyaBM-cYMUYj4OVL4W_pad-13" x="119380" y="31750"/><use xlink:href="#n9wyaBM-cYMUYj4OVL4W_pad-13" x="116840" y="31750"/><use xlink:href="#n9wyaBM-cYMUYj4OVL4W_pad-13" x="114300" y="31750"/><use xlink:href="#n9wyaBM-cYMUYj4OVL4W_pad-13" x="119380" y="36830"/><use xlink:href="#n9wyaBM-cYMUYj4OVL4W_pad-13" x="116840" y="36830"/><use xlink:href="#n9wyaBM-cYMUYj4OVL4W_pad-13" x="114300" y="36830"/><path d="M 43228 24003 42370 24003 M 42370 31873 43228 31873 M 8228 31873 7370 31873 M 7370 24003 8228 24003 M 42370 5461 43228 5461 M 43228 13331 42370 13331 M 8228 13331 7370 13331 M 7370 5461 8228 5461" fill="none" stroke-width="858"/><path d="M 48139.7 8244.7 49310.3 8244.7 M 48139.7 8244.7 48139.7 9035.3 49310.3 9035.3 49310.3 8244.7 M 49310.3 8377.2 48139.7 8377.2 M 48139.7 8509.7 49310.3 8509.7 M 49310.3 8642.2 48139.7 8642.2 M 48139.7 8774.7 49310.3 8774.7 M 49310.3 8907.2 48139.7 8907.2 M 48139.7 5954.7 49310.3 5954.7 M 48139.7 5954.7 48139.7 6745.3 49310.3 6745.3 49310.3 5954.7 M 49310.3 6087.2 48139.7 6087.2 M 48139.7 6219.7 49310.3 6219.7 M 49310.3 6352.2 48139.7 6352.2 M 48139.7 6484.7 49310.3 6484.7 M 49310.3 6617.2 48139.7 6617.2 M 48139.7 3664.7 49310.3 3664.7 M 48139.7 3664.7 48139.7 4455.3 49310.3 4455.3 49310.3 3664.7 M 49310.3 3797.2 48139.7 3797.2 M 48139.7 3929.7 49310.3 3929.7 M 49310.3 4062.2 48139.7 4062.2 M 48139.7 4194.7 49310.3 4194.7 M 49310.3 4327.2 48139.7 4327.2" fill="none" stroke-width="139.5"/><path d="M 54858.2 4828.2 55971.8 4828.2 M 54858.2 4828.2 54858.2 7871.8 55971.8 7871.8 55971.8 4828.2 M 55971.8 5014.9 54858.2 5014.9 M 54858.2 5201.6 55971.8 5201.6 M 55971.8 5388.3 54858.2 5388.3 M 54858.2 5575 55971.8 5575 M 55971.8 5761.7 54858.2 5761.7 M 54858.2 5948.4 55971.8 5948.4 M 55971.8 6135.1 54858.2 6135.1 M 54858.2 6321.8 55971.8 6321.8 M 55971.8 6508.5 54858.2 6508.5 M 54858.2 6695.2 55971.8 6695.2 M 55971.8 6881.9 54858.2 6881.9 M 54858.2 7068.6 55971.8 7068.6 M 55971.8 7255.3 54858.2 7255.3 M 54858.2 7442 55971.8 7442 M 55971.8 7628.7 54858.2 7628.7 M 54858.2 7815.4 55971.8 7815.4" fill="none" stroke-width="196.5"/><use xlink:href="#n9wyaBM-cYMUYj4OVL4W_pad-13" x="114300" y="12014.2"/><use xlink:href="#n9wyaBM-cYMUYj4OVL4W_pad-13" x="116840" y="12014.2"/><use xlink:href="#n9wyaBM-cYMUYj4OVL4W_pad-13" x="119380" y="12014.2"/><use xlink:href="#n9wyaBM-cYMUYj4OVL4W_pad-17" x="13860" y="52340"/><use xlink:href="#n9wyaBM-cYMUYj4OVL4W_pad-17" x="13860" y="54340"/><use xlink:href="#n9wyaBM-cYMUYj4OVL4W_pad-18" x="8660" y="49940"/><use xlink:href="#n9wyaBM-cYMUYj4OVL4W_pad-18" x="8660" y="56740"/><use xlink:href="#n9wyaBM-cYMUYj4OVL4W_pad-17" x="13860" y="40910"/><use xlink:href="#n9wyaBM-cYMUYj4OVL4W_pad-17" x="13860" y="42910"/><use xlink:href="#n9wyaBM-cYMUYj4OVL4W_pad-18" x="8660" y="38510"/><use xlink:href="#n9wyaBM-cYMUYj4OVL4W_pad-18" x="8660" y="45310"/><path d="M 92500 19500 107000 34000 M 92500 19500 86500 13500 86210 13216 M 106680 34290 107000 34000 M 93000 19500 107500 5000 M 93000 19500 92500 19500 M 107500 5000 107950 5080 M 86500 16000 86500 17000 106500 37000 M 86500 16000 86210 15756 M 106500 37000 106680 36830 M 108000 9000 108000 8000 M 108000 9000 109000 10000 109000 34500 107000 36500 M 108000 8000 107950 7620 M 107000 36500 106680 36830 M 95000 48500 86500 48500 M 95000 48500 105500 38000 118000 38000 119000 37000 M 86500 48500 86210 48776 M 119000 37000 119380 36830 M 53000 6500 49000 6500 M 53000 6500 59500 13000 60500 13000 M 49000 6500 48725 6350 M 60500 13000 60960 13216 M 8000 12000 8000 5500 M 8000 12000 16500 20500 16500 49500 14000 52000 M 8000 5500 7799 5461 M 14000 52000 13860 52340 M 7500 22500 7500 13500 M 7500 22500 6500 23500 6500 51000 11000 55500 13000 55500 14000 54500 M 7500 13500 7799 13331 M 13860 54340 14000 54500 M 117000 25000 117000 19500 116840 19050 M 117000 25000 116840 25400 M 48500 4500 41500 11500 41500 23000 42500 24000 M 48500 4500 48725 4060 M 42799 24003 42500 24000 M 115500 20500 116500 19500 M 115500 20500 114000 20500 109500 16000 109500 5500 108000 4000 49000 4000 M 116500 19500 116840 19050 M 49000 4000 48725 4060 M 117000 32000 117000 36500 M 117000 32000 116840 31750 M 117000 36500 116840 36830 M 45500 5500 43000 5500 M 45500 5500 48000 3000 107500 3000 116500 12000 M 43000 5500 42799 5461 M 116500 12000 116840 12014.2 M 114500 32000 114500 36500 M 114500 32000 114300 31750 M 114500 36500 114300 36830 M 119000 14500 119000 12500 M 119000 14500 114500 19000 M 119000 12500 119380 12014.2 M 114500 19000 114300 19050 M 114500 25500 114500 31500 114300 31750 M 114500 25500 114300 25400 M 48500 9000 47000 9000 43000 13000 M 48500 9000 48725 8640 M 43000 13000 42799 13331 M 8000 24000 8000 30500 13500 36000 13500 40500 M 8000 24000 7799 24003 M 13500 40500 13860 40910 M 8000 35000 8000 32000 M 8000 35000 11000 38000 11000 41500 12000 42500 13500 42500 M 8000 32000 7799 31873 M 13500 42500 13860 42910" fill="none" stroke-width="152.4"/></g></svg>