<svg version="1.1" xmlns="http://www.w3.org/2000/svg" xmlns:xlink="http://www.w3.org/1999/xlink" stroke-linecap="round" stroke-linejoin="round" stroke-width="0" fill-rule="evenodd" width="150.781mm" height="58mm" viewBox="-21765 984 150781 58000" id="M24r0OHOdb3Ik35MUQVf"><defs><circle cx="0" cy="0" r="1500" id="M24r0OHOdb3Ik35MUQVf_pad-1"/><circle cx="0" cy="0" r="508" id="M24r0OHOdb3Ik35MUQVf_pad-2"/><circle cx="0" cy="0" r="400" id="M24r0OHOdb3Ik35MUQVf_pad-3"/><circle cx="0" cy="0" r="325" id="M24r0OHOdb3Ik35MUQVf_pad-4"/><circle cx="0" cy="0" r="300" id="M24r0OHOdb3Ik35MUQVf_pad-5"/><circle cx="0" cy="0" r="175" id="M24r0OHOdb3Ik35MUQVf_pad-6"/></defs><g transform="translate(0,59968) scale(1,-1)" fill="currentColor" stroke="currentColor"><use xlink:href="#M24r0OHOdb3Ik35MUQVf_pad-1" x="2516" y="57484"/><use xlink:href="#M24r0OHOdb3Ik35MUQVf_pad-1" x="127516" y="57484"/><use xlink:href="#M24r0OHOdb3Ik35MUQVf_pad-1" x="2516" y="2484"/><use xlink:href="#M24r0OHOdb3Ik35MUQVf_pad-1" x="127516" y="2484"/><use xlink:href="#M24r0OHOdb3Ik35MUQVf_pad-2" x="119380" y="19050"/><use xlink:href="#M24r0OHOdb3Ik35MUQVf_pad-2" x="119380" y="12014"/><use xlink:href="#M24r0OHOdb3Ik35MUQVf_pad-2" x="116840" y="19050"/><use xlink:href="#M24r0OHOdb3Ik35MUQVf_pad-2" x="114300" y="19050"/><use xlink:href="#M24r0OHOdb3Ik35MUQVf_pad-2" x="119380" y="25400"/><use xlink:href="#M24r0OHOdb3Ik35MUQVf_pad-2" x="116840" y="25400"/><use xlink:href="#M24r0OHOdb3Ik35MUQVf_pad-2" x="114300" y="25400"/><use xlink:href="#M24r0OHOdb3Ik35MUQVf_pad-2" x="119380" y="31750"/><use xlink:href="#M24r0OHOdb3Ik35MUQVf_pad-2" x="116840" y="31750"/><use xlink:href="#M24r0OHOdb3Ik35MUQVf_pad-2" x="114300" y="31750"/><use xlink:href="#M24r0OHOdb3Ik35MUQVf_pad-2" x="119380" y="36830"/><use xlink:href="#M24r0OHOdb3Ik35MUQVf_pad-2" x="116840" y="36830"/><use xlink:href="#M24r0OHOdb3Ik35MUQVf_pad-2" x="114300" y="36830"/><use xlink:href="#M24r0OHOdb3Ik35MUQVf_pad-2" x="114300" y="12014"/><use xlink:href="#M24r0OHOdb3Ik35MUQVf_pad-2" x="116840" y="12014"/><use xlink:href="#M24r0OHOdb3Ik35MUQVf_pad-3" x="106680" y="52070"/><use xlink:href="#M24r0OHOdb3Ik35MUQVf_pad-3" x="106680" y="49530"/><use xlink:href="#M24r0OHOdb3Ik35MUQVf_pad-3" x="106680" y="41910"/><use xlink:href="#M24r0OHOdb3Ik35MUQVf_pad-3" x="106680" y="44450"/><use xlink:href="#M24r0OHOdb3Ik35MUQVf_pad-3" x="106680" y="39370"/><use xlink:href="#M24r0OHOdb3Ik35MUQVf_pad-3" x="106680" y="36830"/><use xlink:href="#M24r0OHOdb3Ik35MUQVf_pad-3" x="106680" y="34290"/><use xlink:href="#M24r0OHOdb3Ik35MUQVf_pad-3" x="106680" y="46990"/><use xlink:href="#M24r0OHOdb3Ik35MUQVf_pad-4" x="60960" y="48776"/><use xlink:href="#M24r0OHOdb3Ik35MUQVf_pad-5" x="60960" y="20836"/><use xlink:href="#M24r0OHOdb3Ik35MUQVf_pad-5" x="60960" y="18296"/><use xlink:href="#M24r0OHOdb3Ik35MUQVf_pad-5" x="60960" y="15756"/><use xlink:href="#M24r0OHOdb3Ik35MUQVf_pad-5" x="60960" y="13216"/><use xlink:href="#M24r0OHOdb3Ik35MUQVf_pad-5" x="86210" y="13216"/><use xlink:href="#M24r0OHOdb3Ik35MUQVf_pad-5" x="86210" y="15756"/><use xlink:href="#M24r0OHOdb3Ik35MUQVf_pad-5" x="86210" y="18296"/><use xlink:href="#M24r0OHOdb3Ik35MUQVf_pad-5" x="107950" y="5080"/><use xlink:href="#M24r0OHOdb3Ik35MUQVf_pad-5" x="86210" y="23376"/><use xlink:href="#M24r0OHOdb3Ik35MUQVf_pad-5" x="86210" y="25916"/><use xlink:href="#M24r0OHOdb3Ik35MUQVf_pad-5" x="86210" y="28456"/><use xlink:href="#M24r0OHOdb3Ik35MUQVf_pad-5" x="86210" y="30996"/><use xlink:href="#M24r0OHOdb3Ik35MUQVf_pad-5" x="86210" y="33536"/><use xlink:href="#M24r0OHOdb3Ik35MUQVf_pad-5" x="86210" y="36076"/><use xlink:href="#M24r0OHOdb3Ik35MUQVf_pad-5" x="86210" y="38616"/><use xlink:href="#M24r0OHOdb3Ik35MUQVf_pad-5" x="86210" y="41156"/><use xlink:href="#M24r0OHOdb3Ik35MUQVf_pad-5" x="86210" y="43696"/><use xlink:href="#M24r0OHOdb3Ik35MUQVf_pad-5" x="86210" y="46236"/><use xlink:href="#M24r0OHOdb3Ik35MUQVf_pad-5" x="86210" y="48776"/><use xlink:href="#M24r0OHOdb3Ik35MUQVf_pad-5" x="107950" y="12700"/><use xlink:href="#M24r0OHOdb3Ik35MUQVf_pad-5" x="107950" y="10160"/><use xlink:href="#M24r0OHOdb3Ik35MUQVf_pad-5" x="107950" y="7620"/><use xlink:href="#M24r0OHOdb3Ik35MUQVf_pad-5" x="60960" y="46236"/><use xlink:href="#M24r0OHOdb3Ik35MUQVf_pad-5" x="60960" y="43696"/><use xlink:href="#M24r0OHOdb3Ik35MUQVf_pad-5" x="60960" y="41156"/><use xlink:href="#M24r0OHOdb3Ik35MUQVf_pad-5" x="60960" y="38616"/><use xlink:href="#M24r0OHOdb3Ik35MUQVf_pad-5" x="60960" y="36076"/><use xlink:href="#M24r0OHOdb3Ik35MUQVf_pad-5" x="60960" y="33536"/><use xlink:href="#M24r0OHOdb3Ik35MUQVf_pad-5" x="60960" y="30996"/><use xlink:href="#M24r0OHOdb3Ik35MUQVf_pad-5" x="60960" y="28456"/><use xlink:href="#M24r0OHOdb3Ik35MUQVf_pad-5" x="86210" y="20836"/><use xlink:href="#M24r0OHOdb3Ik35MUQVf_pad-5" x="60960" y="25916"/><use xlink:href="#M24r0OHOdb3Ik35MUQVf_pad-5" x="60960" y="23376"/><use xlink:href="#M24r0OHOdb3Ik35MUQVf_pad-6" x="-21590" y="58420"/><use xlink:href="#M24r0OHOdb3Ik35MUQVf_pad-6" x="7799" y="24003"/><use xlink:href="#M24r0OHOdb3Ik35MUQVf_pad-6" x="42799" y="5461"/><use xlink:href="#M24r0OHOdb3Ik35MUQVf_pad-6" x="42799" y="13331"/><use xlink:href="#M24r0OHOdb3Ik35MUQVf_pad-6" x="7799" y="13331"/><use xlink:href="#M24r0OHOdb3Ik35MUQVf_pad-6" x="7799" y="5461"/><use xlink:href="#M24r0OHOdb3Ik35MUQVf_pad-6" x="42799" y="24003"/><use xlink:href="#M24r0OHOdb3Ik35MUQVf_pad-6" x="42799" y="31873"/><use xlink:href="#M24r0OHOdb3Ik35MUQVf_pad-6" x="7799" y="31873"/></g></svg>