<svg version="1.1" xmlns="http://www.w3.org/2000/svg" xmlns:xlink="http://www.w3.org/1999/xlink" stroke-linecap="round" stroke-linejoin="round" stroke-width="0" fill-rule="evenodd" width="150.98420000000002mm" height="58.203199999999995mm" viewBox="-21866.6 882.4 150984.2 58203.2" id="SjrhcGAjnSnYyHjRW8JG"><defs><circle cx="0" cy="0" r="276.6" id="SjrhcGAjnSnYyHjRW8JG_pad-10"/><circle cx="0" cy="0" r="1601.6" id="SjrhcGAjnSnYyHjRW8JG_pad-11"/><circle cx="0" cy="0" r="655.6" id="SjrhcGAjnSnYyHjRW8JG_pad-12"/><circle cx="0" cy="0" r="680.6" id="SjrhcGAjnSnYyHjRW8JG_pad-14"/><circle cx="0" cy="0" r="1041.4" id="SjrhcGAjnSnYyHjRW8JG_pad-15"/></defs><g transform="translate(0,59968) scale(1,-1)" fill="currentColor" stroke="currentColor"><use xlink:href="#SjrhcGAjnSnYyHjRW8JG_pad-10" x="-21590" y="58420"/><use xlink:href="#SjrhcGAjnSnYyHjRW8JG_pad-11" x="2516" y="57484"/><use xlink:href="#SjrhcGAjnSnYyHjRW8JG_pad-11" x="127516" y="57484"/><use xlink:href="#SjrhcGAjnSnYyHjRW8JG_pad-11" x="2516" y="2484"/><use xlink:href="#SjrhcGAjnSnYyHjRW8JG_pad-11" x="127516" y="2484"/><use xlink:href="#SjrhcGAjnSnYyHjRW8JG_pad-12" x="107950" y="12700"/><use xlink:href="#SjrhcGAjnSnYyHjRW8JG_pad-12" x="107950" y="10160"/><use xlink:href="#SjrhcGAjnSnYyHjRW8JG_pad-12" x="107950" y="7620"/><use xlink:href="#SjrhcGAjnSnYyHjRW8JG_pad-12" x="107950" y="5080"/><path d="M 107569 41910 105791 41910 M 105791 44450 107569 44450 M 107569 39370 105791 39370 M 105791 36830 107569 36830 M 107569 34290 105791 34290 M 105791 46990 107569 46990 M 107569 49530 105791 49530 M 105791 52070 107569 52070" fill="none" stroke-width="1981.2"/><use xlink:href="#SjrhcGAjnSnYyHjRW8JG_pad-14" x="60960" y="48776"/><use xlink:href="#SjrhcGAjnSnYyHjRW8JG_pad-12" x="60960" y="46236"/><use xlink:href="#SjrhcGAjnSnYyHjRW8JG_pad-12" x="60960" y="43696"/><use xlink:href="#SjrhcGAjnSnYyHjRW8JG_pad-12" x="60960" y="41156"/><use xlink:href="#SjrhcGAjnSnYyHjRW8JG_pad-12" x="60960" y="38616"/><use xlink:href="#SjrhcGAjnSnYyHjRW8JG_pad-12" x="60960" y="36076"/><use xlink:href="#SjrhcGAjnSnYyHjRW8JG_pad-12" x="60960" y="33536"/><use xlink:href="#SjrhcGAjnSnYyHjRW8JG_pad-12" x="60960" y="30996"/><use xlink:href="#SjrhcGAjnSnYyHjRW8JG_pad-12" x="60960" y="28456"/><use xlink:href="#SjrhcGAjnSnYyHjRW8JG_pad-12" x="60960" y="25916"/><use xlink:href="#SjrhcGAjnSnYyHjRW8JG_pad-12" x="60960" y="23376"/><use xlink:href="#SjrhcGAjnSnYyHjRW8JG_pad-12" x="60960" y="20836"/><use xlink:href="#SjrhcGAjnSnYyHjRW8JG_pad-12" x="60960" y="18296"/><use xlink:href="#SjrhcGAjnSnYyHjRW8JG_pad-12" x="60960" y="15756"/><use xlink:href="#SjrhcGAjnSnYyHjRW8JG_pad-12" x="60960" y="13216"/><use xlink:href="#SjrhcGAjnSnYyHjRW8JG_pad-12" x="86210" y="13216"/><use xlink:href="#SjrhcGAjnSnYyHjRW8JG_pad-12" x="86210" y="15756"/><use xlink:href="#SjrhcGAjnSnYyHjRW8JG_pad-12" x="86210" y="18296"/><use xlink:href="#SjrhcGAjnSnYyHjRW8JG_pad-12" x="86210" y="20836"/><use xlink:href="#SjrhcGAjnSnYyHjRW8JG_pad-12" x="86210" y="23376"/><use xlink:href="#SjrhcGAjnSnYyHjRW8JG_pad-12" x="86210" y="25916"/><use xlink:href="#SjrhcGAjnSnYyHjRW8JG_pad-12" x="86210" y="28456"/><use xlink:href="#SjrhcGAjnSnYyHjRW8JG_pad-12" x="86210" y="30996"/><use xlink:href="#SjrhcGAjnSnYyHjRW8JG_pad-12" x="86210" y="33536"/><use xlink:href="#SjrhcGAjnSnYyHjRW8JG_pad-12" x="86210" y="36076"/><use xlink:href="#SjrhcGAjnSnYyHjRW8JG_pad-12" x="86210" y="38616"/><use xlink:href="#SjrhcGAjnSnYyHjRW8JG_pad-12" x="86210" y="41156"/><use xlink:href="#SjrhcGAjnSnYyHjRW8JG_pad-12" x="86210" y="43696"/><use xlink:href="#SjrhcGAjnSnYyHjRW8JG_pad-12" x="86210" y="46236"/><use xlink:href="#SjrhcGAjnSnYyHjRW8JG_pad-12" x="86210" y="48776"/><use xlink:href="#SjrhcGAjnSnYyHjRW8JG_pad-15" x="119380" y="19050"/><use xlink:href="#SjrhcGAjnSnYyHjRW8JG_pad-15" x="116840" y="19050"/><use xlink:href="#SjrhcGAjnSnYyHjRW8JG_pad-15" x="114300" y="19050"/><use xlink:href="#SjrhcGAjnSnYyHjRW8JG_pad-15" x="119380" y="25400"/><use xlink:href="#SjrhcGAjnSnYyHjRW8JG_pad-15" x="116840" y="25400"/><use xlink:href="#SjrhcGAjnSnYyHjRW8JG_pad-15" x="114300" y="25400"/><use xlink:href="#SjrhcGAjnSnYyHjRW8JG_pad-15" x="119380" y="31750"/><use xlink:href="#SjrhcGAjnSnYyHjRW8JG_pad-15" x="116840" y="31750"/><use xlink:href="#SjrhcGAjnSnYyHjRW8JG_pad-15" x="114300" y="31750"/><use xlink:href="#SjrhcGAjnSnYyHjRW8JG_pad-15" x="119380" y="36830"/><use xlink:href="#SjrhcGAjnSnYyHjRW8JG_pad-15" x="116840" y="36830"/><use xlink:href="#SjrhcGAjnSnYyHjRW8JG_pad-15" x="114300" y="36830"/><path d="M 43228 24003 42370 24003 M 42370 31873 43228 31873 M 8228 31873 7370 31873 M 7370 24003 8228 24003 M 42370 5461 43228 5461 M 43228 13331 42370 13331 M 8228 13331 7370 13331 M 7370 5461 8228 5461" fill="none" stroke-width="1061.2"/><use xlink:href="#SjrhcGAjnSnYyHjRW8JG_pad-15" x="114300" y="12014.2"/><use xlink:href="#SjrhcGAjnSnYyHjRW8JG_pad-15" x="116840" y="12014.2"/><use xlink:href="#SjrhcGAjnSnYyHjRW8JG_pad-15" x="119380" y="12014.2"/></g></svg>