<svg version="1.1" xmlns="http://www.w3.org/2000/svg" xmlns:xlink="http://www.w3.org/1999/xlink" stroke-linecap="round" stroke-linejoin="round" stroke-width="0" fill-rule="evenodd" width="49.11005mm" height="53.94505mm" viewBox="6960 3594.95 49110.05 53945.05" id="s7JdhH6Uug6GZ1yAoGH8"><defs><rect x="-2300" y="-500" width="4600" height="1000" id="s7JdhH6Uug6GZ1yAoGH8_pad-12"/><rect x="-1700" y="-800" width="3400" height="1600" id="s7JdhH6Uug6GZ1yAoGH8_pad-13"/></defs><g transform="translate(0,61134.950000000004) scale(1,-1)" fill="currentColor" stroke="currentColor"><path d="M 49310.3 8244.7 48139.7 8244.7 48139.7 9035.3 49310.3 9035.3 49310.3 8244.7 M 49310.3 8377.2 48139.7 8377.2 M 48139.7 8509.7 49310.3 8509.7 M 49310.3 8642.2 48139.7 8642.2 M 48139.7 8774.7 49310.3 8774.7 M 49310.3 8907.2 48139.7 8907.2 M 48139.7 5954.7 49310.3 5954.7 M 48139.7 5954.7 48139.7 6745.3 49310.3 6745.3 49310.3 5954.7 M 49310.3 6087.2 48139.7 6087.2 M 48139.7 6219.7 49310.3 6219.7 M 49310.3 6352.2 48139.7 6352.2 M 48139.7 6484.7 49310.3 6484.7 M 49310.3 6617.2 48139.7 6617.2 M 48139.7 3664.7 49310.3 3664.7 M 48139.7 3664.7 48139.7 4455.3 49310.3 4455.3 49310.3 3664.7 M 49310.3 3797.2 48139.7 3797.2 M 48139.7 3929.7 49310.3 3929.7 M 49310.3 4062.2 48139.7 4062.2 M 48139.7 4194.7 49310.3 4194.7 M 49310.3 4327.2 48139.7 4327.2" fill="none" stroke-width="139.5"/><path d="M 54858.2 4828.2 55971.8 4828.2 M 54858.2 4828.2 54858.2 7871.8 55971.8 7871.8 55971.8 4828.2 M 55971.8 5014.9 54858.2 5014.9 M 54858.2 5201.6 55971.8 5201.6 M 55971.8 5388.3 54858.2 5388.3 M 54858.2 5575 55971.8 5575 M 55971.8 5761.7 54858.2 5761.7 M 54858.2 5948.4 55971.8 5948.4 M 55971.8 6135.1 54858.2 6135.1 M 54858.2 6321.8 55971.8 6321.8 M 55971.8 6508.5 54858.2 6508.5 M 54858.2 6695.2 55971.8 6695.2 M 55971.8 6881.9 54858.2 6881.9 M 54858.2 7068.6 55971.8 7068.6 M 55971.8 7255.3 54858.2 7255.3 M 54858.2 7442 55971.8 7442 M 55971.8 7628.7 54858.2 7628.7 M 54858.2 7815.4 55971.8 7815.4" fill="none" stroke-width="196.5"/><use xlink:href="#s7JdhH6Uug6GZ1yAoGH8_pad-12" x="13860" y="52340"/><use xlink:href="#s7JdhH6Uug6GZ1yAoGH8_pad-12" x="13860" y="54340"/><use xlink:href="#s7JdhH6Uug6GZ1yAoGH8_pad-13" x="8660" y="49940"/><use xlink:href="#s7JdhH6Uug6GZ1yAoGH8_pad-13" x="8660" y="56740"/><use xlink:href="#s7JdhH6Uug6GZ1yAoGH8_pad-12" x="13860" y="40910"/><use xlink:href="#s7JdhH6Uug6GZ1yAoGH8_pad-12" x="13860" y="42910"/><use xlink:href="#s7JdhH6Uug6GZ1yAoGH8_pad-13" x="8660" y="38510"/><use xlink:href="#s7JdhH6Uug6GZ1yAoGH8_pad-13" x="8660" y="45310"/></g></svg>