<svg version="1.1" xmlns="http://www.w3.org/2000/svg" xmlns:xlink="http://www.w3.org/1999/xlink" stroke-linecap="round" stroke-linejoin="round" stroke-width="0" fill-rule="evenodd" clip-rule="evenodd" id="xbRTcI0VbvgV8TMkDC1-_top" viewBox="0 0 130000 60000" width="130mm" height="60mm" class="w-100 h-100"><defs><style>.xbRTcI0VbvgV8TMkDC1-_fr4 {color: #666666;}
.xbRTcI0VbvgV8TMkDC1-_cu {color: #cccccc;}
.xbRTcI0VbvgV8TMkDC1-_cf {color: #cc9933;}
.xbRTcI0VbvgV8TMkDC1-_sm {color: #004200; opacity: 0.75;}
.xbRTcI0VbvgV8TMkDC1-_ss {color: #ffffff;}
.xbRTcI0VbvgV8TMkDC1-_sp {color: #999999;}
.xbRTcI0VbvgV8TMkDC1-_out {color: #000000;}</style><circle cx="0" cy="0" r="276.6" id="lw6X-0xs6wlDle4KKXUW_pad-10"/><circle cx="0" cy="0" r="1601.6" id="lw6X-0xs6wlDle4KKXUW_pad-11"/><circle cx="0" cy="0" r="655.6" id="lw6X-0xs6wlDle4KKXUW_pad-12"/><circle cx="0" cy="0" r="680.6" id="lw6X-0xs6wlDle4KKXUW_pad-14"/><circle cx="0" cy="0" r="1041.4" id="lw6X-0xs6wlDle4KKXUW_pad-15"/><rect x="-2401.6" y="-601.6" width="4803.2" height="1203.2" id="lw6X-0xs6wlDle4KKXUW_pad-19"/><rect x="-1801.6" y="-901.6" width="3603.2" height="1803.2" id="lw6X-0xs6wlDle4KKXUW_pad-20"/><mask id="mosEeG4AmiWCPYmYgt6f_clear-1" fill="#000" stroke="#000"><g><rect x="94015.9" y="42104.9" width="5040.6" height="9642.8" fill="#fff"/><path d="M 94636.9 42272.2 94636.9 42611.2 94635.9 42645.1 94633 42676.8 94628.2 42706.4 94621.4 42733.8 94612.7 42759 94602 42781.9 94589.5 42802.7 94574.9 42821.4 94558.5 42837.8 94540.1 42852 94519.7 42864.1 94497.5 42873.9 94473.3 42881.6 94447.1 42887 94419.1 42890.3 94389 42891.4 94360.1 42890.3 94333 42886.9 94307.8 42881.3 94284.4 42873.5 94262.9 42863.4 94243.3 42851 94225.6 42836.4 94209.7 42819.6 94195.7 42800.5 94183.6 42779.2 94173.3 42755.6 94164.9 42729.8 94158.3 42701.8 94153.7 42671.5 94150.9 42638.9 94149.9 42604.1 94149.9 42272.2 94636.9 42272.2"/></g></mask><mask id="mosEeG4AmiWCPYmYgt6f_clear-2" fill="#000" stroke="#000"><g><rect x="66165" y="37142.1" width="32891.5" height="14605.6" fill="#fff"/><path d="M 66708 49995.9 66738 49998.6 66747 49999.8 66766.2 50002.6 66792.6 50007.9 66817.2 50014.5 66840 50022.6 66861 50031.9 66880.2 50042.6 66897.7 50054.6 66913.2 50067.9 66926.6 50082.4 66938 50098.1 66947.3 50115 66954.5 50133.2 66959.7 50152.5 66962.8 50173 66963.8 50194.8 66962.4 50222 66958.1 50246.6 66951 50268.8 66941 50288.5 66928.4 50306.1 66913.2 50322.1 66895.5 50336.5 66875.3 50349.3 66848.8 50361.9 66812.1 50375.5 66765.1 50390.1 66708 50405.8 66708 49995.9"/><path d="M 66599.4 50570.5 66599.4 50939.2 66571.9 50937.1 66546.1 50933.9 66522.1 50929.5 66499.8 50923.9 66479.4 50917.2 66460.7 50909.3 66443.8 50900.3 66428.7 50890.2 66415.3 50878.9 66403.7 50866.4 66394 50852.8 66386 50838.1 66379.7 50822.2 66375.3 50805.1 66372.6 50786.9 66371.7 50767.6 66373.1 50742.7 66377.2 50719.8 66384 50698.9 66393.6 50680 66394 50679.4 66405.9 50662.7 66420.9 50646.9 66438.5 50632.5 66458.9 50619.5 66483.9 50607.3 66515.7 50595 66554.2 50582.8 66599.4 50570.5"/></g></mask><mask id="mosEeG4AmiWCPYmYgt6f_clear-3" fill="#000" stroke="#000"><g><rect x="42483.5" y="21289" width="56573" height="30458.7" fill="#fff"/><path d="M 43026.6 21559.6 43056.5 21562.2 43065.5 21563.5 43084.7 21566.2 43111.1 21571.5 43135.7 21578.2 43158.5 21586.2 43179.5 21595.6 43198.8 21606.3 43216.2 21618.3 43231.7 21631.6 43245.1 21646.1 43256.5 21661.8 43265.8 21678.7 43273 21696.8 43278.2 21716.2 43281.3 21736.7 43282.3 21758.4 43280.9 21785.6 43276.6 21810.3 43269.5 21832.5 43259.5 21852.1 43246.9 21869.7 43231.7 21885.7 43214.1 21900.2 43193.9 21913 43167.3 21925.6 43130.6 21939.2 43083.7 21953.8 43026.6 21969.5 43026.6 21559.6"/><path d="M 42918 22134.2 42918 22502.9 42890.4 22500.8 42864.6 22497.5 42840.6 22493.1 42818.3 22487.6 42797.9 22480.9 42779.2 22473 42762.3 22464 42747.2 22453.8 42733.8 22442.5 42722.3 22430.1 42712.5 22416.5 42704.5 22401.7 42698.2 22385.8 42693.8 22368.8 42691.1 22350.6 42690.2 22331.2 42691.6 22306.4 42695.7 22283.5 42702.6 22262.6 42712.1 22243.6 42712.5 22243.1 42724.4 22226.4 42739.4 22210.6 42757.1 22196.2 42777.4 22183.2 42802.4 22170.9 42834.2 22158.7 42872.7 22146.4 42918 22134.2"/></g></mask><circle cx="0" cy="0" r="554" id="n9wyaBM-cYMUYj4OVL4W_pad-10"/><circle cx="0" cy="0" r="579" id="n9wyaBM-cYMUYj4OVL4W_pad-12"/><circle cx="0" cy="0" r="939.8" id="n9wyaBM-cYMUYj4OVL4W_pad-13"/><rect x="-2300" y="-500" width="4600" height="1000" id="n9wyaBM-cYMUYj4OVL4W_pad-17"/><rect x="-1700" y="-800" width="3400" height="1600" id="n9wyaBM-cYMUYj4OVL4W_pad-18"/><rect x="-2300" y="-500" width="4600" height="1000" id="s7JdhH6Uug6GZ1yAoGH8_pad-12"/><rect x="-1700" y="-800" width="3400" height="1600" id="s7JdhH6Uug6GZ1yAoGH8_pad-13"/><circle cx="0" cy="0" r="1500" id="M24r0OHOdb3Ik35MUQVf_pad-1"/><circle cx="0" cy="0" r="508" id="M24r0OHOdb3Ik35MUQVf_pad-2"/><circle cx="0" cy="0" r="400" id="M24r0OHOdb3Ik35MUQVf_pad-3"/><circle cx="0" cy="0" r="325" id="M24r0OHOdb3Ik35MUQVf_pad-4"/><circle cx="0" cy="0" r="300" id="M24r0OHOdb3Ik35MUQVf_pad-5"/><circle cx="0" cy="0" r="175" id="M24r0OHOdb3Ik35MUQVf_pad-6"/><g id="xbRTcI0VbvgV8TMkDC1-_top_soldermask"><use xlink:href="#lw6X-0xs6wlDle4KKXUW_pad-10" x="-21590" y="58420"/><use xlink:href="#lw6X-0xs6wlDle4KKXUW_pad-11" x="2516" y="57484"/><use xlink:href="#lw6X-0xs6wlDle4KKXUW_pad-11" x="127516" y="57484"/><use xlink:href="#lw6X-0xs6wlDle4KKXUW_pad-11" x="2516" y="2484"/><use xlink:href="#lw6X-0xs6wlDle4KKXUW_pad-11" x="127516" y="2484"/><use xlink:href="#lw6X-0xs6wlDle4KKXUW_pad-12" x="107950" y="12700"/><use xlink:href="#lw6X-0xs6wlDle4KKXUW_pad-12" x="107950" y="10160"/><use xlink:href="#lw6X-0xs6wlDle4KKXUW_pad-12" x="107950" y="7620"/><use xlink:href="#lw6X-0xs6wlDle4KKXUW_pad-12" x="107950" y="5080"/><path d="M 107569 41910 105791 41910 M 105791 44450 107569 44450 M 107569 39370 105791 39370 M 105791 36830 107569 36830 M 107569 34290 105791 34290 M 105791 46990 107569 46990 M 107569 49530 105791 49530 M 105791 52070 107569 52070" fill="none" stroke-width="1981.2"/><use xlink:href="#lw6X-0xs6wlDle4KKXUW_pad-14" x="60960" y="48776"/><use xlink:href="#lw6X-0xs6wlDle4KKXUW_pad-12" x="60960" y="46236"/><use xlink:href="#lw6X-0xs6wlDle4KKXUW_pad-12" x="60960" y="43696"/><use xlink:href="#lw6X-0xs6wlDle4KKXUW_pad-12" x="60960" y="41156"/><use xlink:href="#lw6X-0xs6wlDle4KKXUW_pad-12" x="60960" y="38616"/><use xlink:href="#lw6X-0xs6wlDle4KKXUW_pad-12" x="60960" y="36076"/><use xlink:href="#lw6X-0xs6wlDle4KKXUW_pad-12" x="60960" y="33536"/><use xlink:href="#lw6X-0xs6wlDle4KKXUW_pad-12" x="60960" y="30996"/><use xlink:href="#lw6X-0xs6wlDle4KKXUW_pad-12" x="60960" y="28456"/><use xlink:href="#lw6X-0xs6wlDle4KKXUW_pad-12" x="60960" y="25916"/><use xlink:href="#lw6X-0xs6wlDle4KKXUW_pad-12" x="60960" y="23376"/><use xlink:href="#lw6X-0xs6wlDle4KKXUW_pad-12" x="60960" y="20836"/><use xlink:href="#lw6X-0xs6wlDle4KKXUW_pad-12" x="60960" y="18296"/><use xlink:href="#lw6X-0xs6wlDle4KKXUW_pad-12" x="60960" y="15756"/><use xlink:href="#lw6X-0xs6wlDle4KKXUW_pad-12" x="60960" y="13216"/><use xlink:href="#lw6X-0xs6wlDle4KKXUW_pad-12" x="86210" y="13216"/><use xlink:href="#lw6X-0xs6wlDle4KKXUW_pad-12" x="86210" y="15756"/><use xlink:href="#lw6X-0xs6wlDle4KKXUW_pad-12" x="86210" y="18296"/><use xlink:href="#lw6X-0xs6wlDle4KKXUW_pad-12" x="86210" y="20836"/><use xlink:href="#lw6X-0xs6wlDle4KKXUW_pad-12" x="86210" y="23376"/><use xlink:href="#lw6X-0xs6wlDle4KKXUW_pad-12" x="86210" y="25916"/><use xlink:href="#lw6X-0xs6wlDle4KKXUW_pad-12" x="86210" y="28456"/><use xlink:href="#lw6X-0xs6wlDle4KKXUW_pad-12" x="86210" y="30996"/><use xlink:href="#lw6X-0xs6wlDle4KKXUW_pad-12" x="86210" y="33536"/><use xlink:href="#lw6X-0xs6wlDle4KKXUW_pad-12" x="86210" y="36076"/><use xlink:href="#lw6X-0xs6wlDle4KKXUW_pad-12" x="86210" y="38616"/><use xlink:href="#lw6X-0xs6wlDle4KKXUW_pad-12" x="86210" y="41156"/><use xlink:href="#lw6X-0xs6wlDle4KKXUW_pad-12" x="86210" y="43696"/><use xlink:href="#lw6X-0xs6wlDle4KKXUW_pad-12" x="86210" y="46236"/><use xlink:href="#lw6X-0xs6wlDle4KKXUW_pad-12" x="86210" y="48776"/><use xlink:href="#lw6X-0xs6wlDle4KKXUW_pad-15" x="119380" y="19050"/><use xlink:href="#lw6X-0xs6wlDle4KKXUW_pad-15" x="116840" y="19050"/><use xlink:href="#lw6X-0xs6wlDle4KKXUW_pad-15" x="114300" y="19050"/><use xlink:href="#lw6X-0xs6wlDle4KKXUW_pad-15" x="119380" y="25400"/><use xlink:href="#lw6X-0xs6wlDle4KKXUW_pad-15" x="116840" y="25400"/><use xlink:href="#lw6X-0xs6wlDle4KKXUW_pad-15" x="114300" y="25400"/><use xlink:href="#lw6X-0xs6wlDle4KKXUW_pad-15" x="119380" y="31750"/><use xlink:href="#lw6X-0xs6wlDle4KKXUW_pad-15" x="116840" y="31750"/><use xlink:href="#lw6X-0xs6wlDle4KKXUW_pad-15" x="114300" y="31750"/><use xlink:href="#lw6X-0xs6wlDle4KKXUW_pad-15" x="119380" y="36830"/><use xlink:href="#lw6X-0xs6wlDle4KKXUW_pad-15" x="116840" y="36830"/><use xlink:href="#lw6X-0xs6wlDle4KKXUW_pad-15" x="114300" y="36830"/><path d="M 43228 24003 42370 24003 M 42370 31873 43228 31873 M 8228 31873 7370 31873 M 7370 24003 8228 24003 M 42370 5461 43228 5461 M 43228 13331 42370 13331 M 8228 13331 7370 13331 M 7370 5461 8228 5461" fill="none" stroke-width="1061.2"/><path d="M 48138.4 8243.4 49311.6 8243.4 M 48138.4 8243.4 48138.4 9036.6 49311.6 9036.6 49311.6 8243.4 M 49311.6 8566.4 48138.4 8566.4 M 48138.4 8889.4 49311.6 8889.4 M 49311.6 5953.4 48138.4 5953.4 48138.4 6746.6 49311.6 6746.6 49311.6 5953.4 M 49311.6 6276.4 48138.4 6276.4 M 48138.4 6599.4 49311.6 6599.4 M 49311.6 3663.4 48138.4 3663.4 48138.4 4456.6 49311.6 4456.6 49311.6 3663.4 M 49311.6 3986.4 48138.4 3986.4 M 48138.4 4309.4 49311.6 4309.4" fill="none" stroke-width="339.959"/><path d="M 54855.1 4825.1 55974.9 4825.1 M 54855.1 4825.1 54855.1 7874.9 55974.9 7874.9 55974.9 4825.1 M 55974.9 5198.8 54855.1 5198.8 M 54855.1 5572.5 55974.9 5572.5 M 55974.9 5946.2 54855.1 5946.2 M 54855.1 6319.9 55974.9 6319.9 M 55974.9 6693.6 54855.1 6693.6 M 54855.1 7067.3 55974.9 7067.3 M 55974.9 7441 54855.1 7441 M 54855.1 7814.7 55974.9 7814.7" fill="none" stroke-width="393.431"/><use xlink:href="#lw6X-0xs6wlDle4KKXUW_pad-15" x="114300" y="12014.2"/><use xlink:href="#lw6X-0xs6wlDle4KKXUW_pad-15" x="116840" y="12014.2"/><use xlink:href="#lw6X-0xs6wlDle4KKXUW_pad-15" x="119380" y="12014.2"/><use xlink:href="#lw6X-0xs6wlDle4KKXUW_pad-19" x="13860" y="52340"/><use xlink:href="#lw6X-0xs6wlDle4KKXUW_pad-19" x="13860" y="54340"/><use xlink:href="#lw6X-0xs6wlDle4KKXUW_pad-20" x="8660" y="49940"/><use xlink:href="#lw6X-0xs6wlDle4KKXUW_pad-20" x="8660" y="56740"/><use xlink:href="#lw6X-0xs6wlDle4KKXUW_pad-19" x="13860" y="40910"/><use xlink:href="#lw6X-0xs6wlDle4KKXUW_pad-19" x="13860" y="42910"/><use xlink:href="#lw6X-0xs6wlDle4KKXUW_pad-20" x="8660" y="38510"/><use xlink:href="#lw6X-0xs6wlDle4KKXUW_pad-20" x="8660" y="45310"/></g><g id="xbRTcI0VbvgV8TMkDC1-_top_silkscreen"><g mask="url(#mosEeG4AmiWCPYmYgt6f_clear-3)"><g mask="url(#mosEeG4AmiWCPYmYgt6f_clear-2)"><g mask="url(#mosEeG4AmiWCPYmYgt6f_clear-1)"><path d="M 95178.2 50800 95008.3 50800 95345.5 51287 95024 51747.7 95198.3 51747.7 95434.8 51378.9 95669.5 51747.7 95845.6 51747.7 95524.1 51288.7 95865.7 50800 95689.7 50800 95434.8 51188.9 95178.2 50800"/><path d="M 98330.4 46617.8 98299.3 46618.4 98270.9 46620.2 98245 46623.2 98221.8 46627.4 98221.8 46745.6 98256.8 46741.7 98295.4 46740.4 98313.5 46741.2 98331.2 46743.8 98348.4 46748 98365.1 46753.9 98381.4 46761.5 98397.1 46770.8 98427.2 46794.5 98455.4 46824.9 98481.6 46862.1 98505.9 46906 98528.4 46956.7 98543.2 46994.4 98167.5 47937.7 98335.7 47937.7 98535.4 47413.9 98545.9 47384.6 98585.3 47270.3 98621.2 47161.7 98682.5 47334.2 98890.1 47937.7 99056.5 47937.7 98692.1 46990 98663.3 46919.1 98635.4 46857.9 98608.6 46806.3 98582.7 46764.5 98556.6 46729.8 98529.1 46699.9 98500.3 46674.6 98470.1 46654.1 98438.2 46638.2 98404.3 46626.9 98368.4 46620 98330.4 46617.8"/><path d="M 95250 42104.9 94015.9 42104.9 94015.9 42624.3 94017.4 42674.7 94022 42722.2 94029.6 42766.8 94040.2 42808.4 94053.9 42847.2 94070.6 42882.9 94090.4 42915.8 94113.1 42945.7 94138.7 42972.4 94166.7 42995.5 94197.3 43015.1 94230.3 43031.1 94265.8 43043.6 94303.8 43052.5 94344.3 43057.8 94387.3 43059.6 94430 43057.8 94470.4 43052.4 94508.6 43043.5 94544.5 43031 94578.2 43014.9 94609.6 42995.3 94638.8 42972.1 94665.8 42945.3 94690 42915.4 94711 42883 94728.8 42848.1 94743.3 42810.5 94754.6 42770.4 94762.7 42727.8 94767.5 42682.6 94769.2 42634.8 94769.2 42272.2 95250 42272.2 95250 42104.9"/></g><path d="M 95250 40611.2 94015.9 40611.2 94015.9 40831 94871.6 41159.4 94925.2 41176.6 94982.4 41193.2 95067.8 41214.6 95023.7 41225.5 94961.4 41244 94903.3 41262.7 94871.6 41274.2 94015.9 41596.5 94015.9 41811.1 95250 41811.1 95250 41660.4 94426.7 41660.4 94292.7 41662.4 94163.9 41668.3 94303.6 41627.6 94360.7 41608.9 94409.2 41591.2 95250 41272.4 95250 41155.1 94409.2 40831.9 94260.3 40782.8 94163.9 40753.9 94261.2 40756.6 94426.7 40760.1 95250 40760.1 95250 40611.2"/><path d="M 94627.3 38660.5 94590.2 38661.1 94554.3 38663 94519.4 38666.1 94485.5 38670.6 94452.8 38676.2 94421 38683.1 94390.4 38691.3 94360.8 38700.8 94332.3 38711.5 94304.8 38723.4 94278.4 38736.7 94253 38751.1 94228.7 38766.9 94205.5 38783.9 94162.2 38821.6 94123.6 38864 94106.2 38886.7 94090.2 38910.4 94075.4 38935.1 94061.9 38960.9 94049.6 38987.6 94038.7 39015.4 94029 39044.2 94020.7 39074.1 94013.6 39104.9 94007.8 39136.8 94003.3 39169.7 94000.1 39203.6 93998.2 39238.5 93997.5 39274.5 93998.6 39324.5 94001.9 39372.1 94007.3 39417.3 94014.8 39460.1 94024.6 39500.5 94036.5 39538.5 94050.5 39574.1 94066.7 39607.3 94085.3 39638.3 94106.5 39667.5 94130.3 39694.9 94156.7 39720.5 94185.7 39744.2 94217.3 39766.1 94251.5 39786.1 94288.3 39804.3 94335.6 39644.9 94310.2 39631.2 94286.6 39616.2 94264.8 39599.9 94244.7 39582.4 94226.5 39563.7 94210 39543.7 94195.3 39522.5 94182.3 39500 94171 39476.2 94161.3 39451 94153 39424.3 94146.2 39396.3 94140.9 39366.9 94137.2 39336 94134.9 39303.7 94134.2 39270.1 94136.2 39218.2 94142.2 39169.5 94152.3 39124 94166.5 39081.5 94184.6 39042.3 94206.8 39006.2 94233.1 38973.2 94263.4 38943.4 94297.3 38916.9 94334.5 38893.9 94375.1 38874.5 94418.9 38858.6 94466.1 38846.3 94516.5 38837.5 94570.2 38832.2 94627.3 38830.4 94684.2 38832.3 94738 38837.9 94788.8 38847.3 94836.5 38860.4 94881.1 38877.3 94922.6 38897.9 94961.1 38922.3 94996.4 38950.4 95028.2 38981.8 95055.6 39016.1 95078.9 39053.3 95097.9 39093.4 95112.7 39136.3 95123.3 39182.1 95129.6 39230.8 95131.8 39282.3 95129.5 39341.8 95122.6 39399.2 95111.1 39454.5 95095 39507.9 95074.9 39557.7 95051.6 39602.6 95025 39642.4 94995.1 39677.3 94772.7 39677.3 94772.7 39308.6 94632.5 39308.6 94632.5 39831.5 95058.2 39831.5 95082.4 39806.3 95105.3 39779.7 95126.7 39751.7 95146.8 39722.3 95165.4 39691.6 95182.6 39659.5 95198.4 39626 95212.8 39591.1 95225.6 39555.1 95236.7 39518.4 95246.1 39480.9 95253.8 39442.7 95259.8 39403.8 95264.1 39364 95266.7 39323.6 95267.5 39282.3 95266.3 39234.8 95262.7 39188.9 95256.7 39144.7 95248.3 39102.1 95237.4 39061.3 95224.2 39022 95208.5 38984.5 95190.4 38948.6 95170.1 38914.6 95147.7 38882.7 95123.1 38852.8 95096.4 38825 95067.6 38799.3 95036.7 38775.6 95003.6 38754 94968.4 38734.5 94931.4 38717.1 94892.7 38702.1 94852.5 38689.4 94810.7 38679 94767.2 38670.9 94722.2 38665.1 94675.5 38661.6 94627.3 38660.5"/><path d="M 94801.6 43293 94015.9 43293 94015.9 43460.3 94787.6 43460.3 94828.5 43461.7 94867 43465.7 94902.9 43472.4 94936.2 43481.8 94967 43493.8 94995.3 43508.6 95021 43526 95044.2 43546.1 95064.7 43568.8 95082.5 43593.8 95097.5 43621.2 95109.9 43651 95119.4 43683.2 95126.3 43717.8 95130.4 43754.7 95131.8 43794 95130.3 43834.5 95126.1 43872.6 95119 43908.4 95109.1 43941.9 95096.4 43973.1 95080.8 44002 95062.4 44028.6 95041.1 44052.8 95017.1 44074.5 94990.6 44093.3 94961.4 44109.1 94929.5 44122.1 94895.1 44132.2 94858.1 44139.5 94818.4 44143.8 94776.2 44145.2 94015.9 44145.2 94015.9 44311.6 94785.8 44311.6 94822.6 44310.7 94858.1 44307.7 94892.3 44302.7 94925.3 44295.8 94956.9 44286.8 94987.3 44275.9 95016.4 44263 95044.2 44248.1 95070.5 44231.4 95095.3 44213.1 95118.4 44193.1 95140 44171.5 95159.9 44148.2 95178.3 44123.3 95195 44096.8 95210.2 44068.6 95223.6 44038.9 95235.3 44008 95245.1 43975.7 95253.2 43942.1 95259.4 43907.3 95263.9 43871.1 95266.6 43833.7 95267.5 43794.9 95266.7 43757.6 95264.1 43721.5 95259.8 43686.7 95253.7 43653 95246 43620.5 95236.5 43589.3 95225.3 43559.2 95212.3 43530.4 95197.8 43502.9 95181.6 43477.1 95163.9 43452.8 95144.7 43430.1 95123.9 43409 95101.5 43389.5 95077.6 43371.6 95052.1 43355.2 95025.2 43340.6 94997 43328 94967.6 43317.3 94936.9 43308.6 94904.9 43301.8 94871.7 43296.9 94837.3 43294 94801.6 43293"/><path d="M 94152.6 37513.7 94015.9 37513.7 94015.9 38527.9 94152.6 38527.9 94152.6 38104 95250 38104 95250 37937.6 94152.6 37937.6 94152.6 37513.7"/><path d="M 95250 37142.1 94015.9 37142.1 94015.9 37309.3 95250 37309.3 95250 37142.1"/><path d="M 95267.5 39964 93950.2 40324 93950.2 40462.4 95267.5 40105.9 95267.5 39964"/><path d="M 66708 49725.3 66599.4 49725.3 66599.4 49867.2 66554 49870.3 66511 49875.5 66470.5 49883 66432.4 49892.7 66396.7 49904.7 66363.5 49918.8 66332.6 49935.1 66304.3 49953.7 66278.3 49974.4 66254.8 49997.4 66233.8 50022.6 66215.2 50050 66199 50079.6 66185.2 50111.4 66173.9 50145.4 66165 50181.6 66313.9 50214 66320.1 50188.8 66327.8 50165.1 66337 50143.1 66347.7 50122.7 66359.9 50103.9 66373.6 50086.7 66388.8 50071.2 66405.4 50057.2 66423.7 50044.8 66443.7 50033.8 66465.4 50024.1 66488.8 50015.9 66513.9 50009 66540.7 50003.5 66565.9 50000 66569.2 49999.5 66599.4 49996.8 66599.4 50431.2 66527.9 50450 66468.4 50467.8 66445.5 50475.9 66420.9 50484.6 66385.3 50500.4 66357.2 50516.3 66331.9 50533.4 66309.4 50551.6 66289.8 50570.9 66272.9 50591.2 66258.5 50612.2 66246.6 50633.9 66237.3 50656.3 66230.2 50680.2 66225.1 50706.5 66222.1 50735 66221.1 50765.8 66222.6 50798.8 66227.2 50830 66234.9 50859.3 66245.7 50886.8 66259.6 50912.4 66276.5 50936.2 66296.5 50958.1 66319.6 50978.2 66345.5 50996.3 66374 51012.2 66405.1 51026 66438.8 51037.7 66475.1 51047.1 66514 51054.5 66555.4 51059.7 66599.4 51062.7 66599.4 51177.5 66708 51177.5 66708 51062.7 66747.8 51059.8 66785.3 51055.1 66820.4 51048.6 66853.2 51040.3 66883.7 51030.1 66911.8 51018.1 66937.7 51004.3 66961.2 50988.7 66982.7 50971 67002.6 50951 67020.8 50928.7 67037.4 50904.1 67052.3 50877.1 67065.6 50847.9 67077.3 50816.3 67087.3 50782.5 66934.9 50753.5 66923.9 50792.4 66908.4 50826.8 66888.4 50856.6 66864 50881.9 66849.8 50892.8 66834.2 50902.6 66817 50911.2 66798.3 50918.8 66778 50925.1 66756.2 50930.4 66732.9 50934.5 66708 50937.5 66708 50547.7 66780.8 50529.7 66842.2 50512.5 66892.2 50496 66931 50480.3 66962.3 50464.5 66990.2 50447.7 67014.6 50429.9 67035.6 50411.1 67053.7 50390.9 67069.6 50369 67083.1 50345.4 67094.3 50320 67103.1 50292.6 67109.4 50262.8 67113.2 50230.8 67114.4 50196.5 67112.8 50161.3 67107.8 50127.8 67099.5 50096.1 67088 50066.2 67073 50038.1 67054.8 50011.8 67033.3 49987.2 67008.5 49964.4 66980.6 49943.7 66949.9 49925.5 66916.5 49909.7 66880.4 49896.3 66841.4 49885.4 66799.7 49876.9 66755.3 49870.8 66708 49867.2 66708 49725.3"/></g><path d="M 65492.2 49832.2 65455 49833 65418.9 49835.6 65384 49839.9 65350.4 49845.9 65317.9 49853.7 65286.6 49863.2 65256.6 49874.4 65227.7 49887.3 65200.3 49901.9 65174.4 49918 65150.1 49935.7 65127.5 49955 65106.4 49975.8 65086.8 49998.2 65068.9 50022.1 65052.6 50047.6 65038 50074.5 65025.4 50102.7 65014.7 50132.1 65005.9 50162.8 64999.1 50194.7 64994.3 50227.9 64991.4 50262.4 64990.4 50298.1 64990.4 51083.7 65157.7 51083.7 65157.7 50312.1 65159 50271.1 65163 50232.7 65169.7 50196.8 65179.1 50163.4 65191.2 50132.6 65206 50104.4 65223.4 50078.7 65243.5 50055.5 65266.2 50035 65291.2 50017.2 65318.6 50002.1 65348.4 49989.8 65380.6 49980.2 65415.1 49973.4 65452.1 49969.3 65491.4 49967.9 65531.8 49969.3 65570 49973.6 65605.8 49980.7 65639.3 49990.6 65670.5 50003.3 65699.4 50018.9 65725.9 50037.3 65750.2 50058.6 65771.8 50082.5 65790.6 50109.1 65806.5 50138.3 65819.5 50170.1 65829.6 50204.5 65836.8 50241.6 65841.1 50281.2 65842.6 50323.5 65842.6 51083.7 66009 51083.7 66009 50313.9 66008 50277.1 66005 50241.6 66000.1 50207.3 65993.1 50174.4 65984.2 50142.7 65973.3 50112.4 65960.4 50083.3 65945.5 50055.5 65928.8 50029.1 65910.5 50004.4 65890.5 49981.2 65868.9 49959.7 65845.6 49939.7 65820.7 49921.4 65794.1 49904.7 65766 49889.5 65736.3 49876.1 65705.3 49864.4 65673.1 49854.6 65639.5 49846.5 65604.6 49840.2 65568.5 49835.7 65531 49833 65492.2 49832.2"/><path d="M 68050 49849.7 67232.8 49849.7 67232.8 49960.9 67256.4 50010.6 67282.4 50057.4 67310.9 50101.1 67341.9 50141.8 67374.5 50180 67407.9 50216.4 67442.1 50251 67477.2 50283.7 67547.8 50344.9 67617.8 50401.5 67684 50455.8 67743.5 50510.1 67770.1 50537.5 67794.2 50565.7 67815.5 50594.5 67834.1 50623.9 67849.2 50654.7 67860.1 50687.4 67866.5 50722.1 67868.7 50758.8 67867.8 50783.5 67865 50806.8 67860.3 50828.6 67853.8 50849 67845.4 50868 67835.2 50885.6 67823.1 50901.7 67809.2 50916.5 67793.5 50929.6 67776.5 50941 67758 50950.6 67738 50958.5 67716.6 50964.6 67693.7 50969 67669.4 50971.6 67643.6 50972.5 67619 50971.7 67595.5 50969.1 67573.1 50964.8 67551.8 50958.8 67531.6 50951.1 67512.5 50941.7 67494.5 50930.6 67477.6 50917.8 67462.2 50903.4 67448.4 50887.6 67436.3 50870.5 67425.9 50852 67417.1 50832.1 67410.1 50810.8 67404.7 50788.1 67401 50764.1 67239.8 50778.9 67245.6 50815 67254.3 50849.2 67265.7 50881.5 67280 50911.9 67297.2 50940.4 67317.1 50967 67339.9 50991.7 67365.5 51014.6 67393.5 51035.1 67423.5 51052.9 67455.3 51067.9 67489.1 51080.2 67524.9 51089.8 67562.5 51096.7 67602.1 51100.8 67643.6 51102.1 67688.9 51100.8 67731.5 51096.6 67771.4 51089.8 67808.6 51080.1 67843.1 51067.8 67874.9 51052.6 67904 51034.7 67930.5 51014.1 67954 50991 67974.3 50965.5 67991.6 50937.7 68005.7 50907.6 68016.6 50875.2 68024.5 50840.4 68029.2 50803.4 68030.7 50764.1 68028.7 50728.2 68022.5 50692.5 68012.3 50656.8 67997.9 50621.3 67979.5 50585.8 67957.1 50550.3 67930.6 50514.9 67900.2 50479.4 67860.4 50439.1 67805.9 50389 67736.5 50329.1 67652.4 50259.6 67604.6 50219.4 67561.9 50181.3 67524.4 50145.2 67492.1 50111.1 67464.4 50078.3 67440.9 50046.2 67421.5 50014.6 67406.3 49983.7 68050 49983.7 68050 49849.7"/><path d="M 43026.6 21289 42918 21289 42918 21430.9 42872.5 21433.9 42829.6 21439.2 42789 21446.7 42750.9 21456.4 42715.2 21468.3 42682 21482.5 42651.2 21498.8 42622.8 21517.3 42596.9 21538.1 42573.4 21561.1 42552.3 21586.2 42533.7 21613.6 42517.5 21643.2 42503.7 21675 42492.4 21709.1 42483.5 21745.3 42632.4 21777.7 42638.7 21752.4 42646.4 21728.8 42655.6 21706.8 42666.3 21686.4 42678.5 21667.6 42692.1 21650.4 42707.3 21634.9 42724 21620.9 42742.2 21608.5 42762.2 21597.4 42783.9 21587.8 42807.3 21579.5 42832.4 21572.7 42859.2 21567.2 42884.4 21563.6 42887.7 21563.1 42918 21560.5 42918 21994.9 42846.4 22013.7 42786.9 22031.5 42764 22039.6 42739.4 22048.3 42703.8 22064.1 42675.7 22080 42650.4 22097 42627.9 22115.2 42608.3 22134.6 42591.4 22154.9 42577 22175.9 42565.2 22197.6 42555.8 22220 42548.7 22243.9 42543.6 22270.1 42540.6 22298.7 42539.6 22329.5 42541.1 22362.5 42545.8 22393.7 42553.5 22423 42564.2 22450.5 42578.1 22476.1 42595 22499.9 42615 22521.8 42638.1 22541.9 42664.1 22560 42692.6 22575.9 42723.7 22589.7 42757.4 22601.3 42793.6 22610.8 42832.5 22618.2 42873.9 22623.3 42918 22626.4 42918 22741.1 43026.6 22741.1 43026.6 22626.4 43066.4 22623.5 43103.8 22618.8 43138.9 22612.3 43171.7 22603.9 43202.2 22593.8 43230.4 22581.8 43256.2 22568 43279.7 22552.4 43301.2 22534.7 43321.1 22514.7 43339.3 22492.4 43355.9 22467.8 43370.8 22440.8 43384.1 22411.6 43395.8 22380 43405.8 22346.1 43253.4 22317.2 43242.4 22356.1 43226.9 22390.5 43206.9 22420.3 43182.5 22445.5 43168.3 22456.5 43152.7 22466.2 43135.5 22474.9 43116.8 22482.4 43096.5 22488.8 43074.7 22494.1 43051.4 22498.2 43026.6 22501.1 43026.6 22111.4 43099.3 22093.4 43160.7 22076.1 43210.7 22059.7 43249.5 22043.9 43280.8 22028.1 43308.7 22011.3 43333.1 21993.5 43354.1 21974.8 43372.3 21954.6 43388.1 21932.7 43401.6 21909.1 43412.8 21883.7 43421.6 21856.2 43427.9 21826.5 43431.7 21794.5 43433 21760.2 43431.3 21724.9 43426.3 21691.5 43418.1 21659.8 43406.5 21629.9 43391.6 21601.8 43373.4 21575.4 43351.8 21550.9 43327 21528.1 43299.1 21507.4 43268.5 21489.2 43235.1 21473.3 43198.9 21460 43160 21449 43118.3 21440.5 43073.8 21434.5 43026.6 21430.9 43026.6 21289"/></g><path d="M 41810.8 21395.8 41773.5 21396.7 41737.4 21399.3 41702.5 21403.6 41668.9 21409.6 41636.4 21417.4 41605.2 21426.9 41575.1 21438.1 41546.3 21451 41518.8 21465.6 41492.9 21481.7 41468.7 21499.4 41446 21518.7 41424.9 21539.5 41405.4 21561.8 41387.4 21585.8 41371.1 21611.3 41356.5 21638.2 41343.9 21666.3 41333.2 21695.8 41324.5 21726.5 41317.7 21758.4 41312.8 21791.6 41309.9 21826.1 41308.9 21861.8 41308.9 22647.4 41476.2 22647.4 41476.2 21875.8 41477.5 21834.8 41481.6 21796.4 41488.3 21760.5 41497.7 21727.1 41509.7 21696.3 41524.5 21668 41541.9 21642.3 41562 21619.2 41584.7 21598.6 41609.7 21580.8 41637.1 21565.8 41666.9 21553.5 41699.1 21543.9 41733.6 21537 41770.6 21532.9 41809.9 21531.6 41850.3 21533 41888.5 21537.2 41924.3 21544.3 41957.8 21554.2 41989 21567 42017.9 21582.6 42044.5 21601 42068.7 21622.2 42090.4 21646.2 42109.1 21672.8 42125 21702 42138 21733.8 42148.1 21768.2 42155.3 21805.3 42159.7 21844.9 42161.1 21887.2 42161.1 22647.4 42327.5 22647.4 42327.5 21877.5 42326.5 21840.7 42323.6 21805.2 42318.6 21771 42311.7 21738.1 42302.7 21706.4 42291.8 21676 42278.9 21647 42264 21619.2 42247.3 21592.8 42229 21568.1 42209 21544.9 42187.4 21523.4 42164.1 21503.4 42139.2 21485.1 42112.7 21468.3 42084.5 21453.2 42054.8 21439.7 42023.9 21428.1 41991.6 21418.2 41958 21410.2 41923.2 21403.9 41887 21399.4 41849.5 21396.7 41810.8 21395.8"/><path d="M 43961.3 21395.8 43915.6 21397.1 43872.3 21401.1 43831.3 21407.7 43792.8 21416.9 43756.6 21428.8 43722.7 21443.4 43691.3 21460.5 43662.2 21480.3 43635.7 21502.7 43612 21527.7 43591.1 21555.1 43573.1 21585.1 43558 21617.6 43545.6 21652.7 43536.1 21690.3 43529.5 21730.4 43692.4 21745.3 43697.1 21718.8 43703.5 21694 43711.4 21670.9 43721 21649.5 43732.2 21629.8 43745 21611.9 43759.4 21595.6 43775.4 21581.1 43793 21568.2 43812.2 21557.1 43833 21547.7 43855.4 21540 43879.5 21534 43905.1 21529.7 43932.4 21527.2 43961.3 21526.3 43990.2 21527.2 44017.6 21530 44043.4 21534.6 44067.6 21541 44090.1 21549.2 44111.1 21559.3 44130.5 21571.2 44148.3 21585 44164.2 21600.6 44178 21617.9 44189.6 21637 44199.2 21657.9 44206.6 21680.6 44211.9 21705 44215.1 21731.3 44216.1 21759.3 44214.9 21783.8 44211.3 21806.9 44205.2 21828.6 44196.8 21849 44185.9 21867.9 44172.5 21885.5 44156.8 21901.7 44138.6 21916.5 44118.2 21929.8 44095.6 21941.2 44070.8 21950.9 44043.9 21958.9 44014.9 21965.1 43983.7 21969.5 43950.3 21972.1 43914.8 21973 43825.5 21973 43825.5 22109.6 43911.3 22109.6 43942.8 22110.5 43972.5 22113.2 44000.4 22117.6 44026.4 22123.8 44050.6 22131.7 44073 22141.4 44093.6 22152.9 44112.3 22166.1 44129.1 22180.9 44143.6 22197.1 44155.8 22214.6 44165.9 22233.5 44173.7 22253.7 44179.3 22275.3 44182.6 22298.2 44183.7 22322.5 44182.8 22346.6 44180.1 22369.4 44175.5 22390.8 44169.2 22411 44161 22429.9 44151 22447.5 44139.1 22463.8 44125.5 22478.8 44110 22492.3 44092.8 22503.9 44073.9 22513.8 44053.1 22521.8 44030.6 22528.1 44006.3 22532.6 43980.3 22535.3 43952.5 22536.2 43927.1 22535.3 43902.9 22532.8 43879.9 22528.7 43858.2 22522.8 43837.8 22515.3 43818.6 22506.1 43800.6 22495.3 43783.9 22482.8 43768.6 22468.7 43755.1 22453.3 43743.2 22436.5 43733 22418.4 43724.5 22398.9 43717.6 22378 43712.5 22355.7 43709 22332.1 43550.5 22344.4 43556.3 22381.2 43564.9 22416 43576.4 22448.6 43590.7 22479.2 43607.8 22507.8 43627.8 22534.2 43650.5 22558.6 43676.2 22580.8 43704.2 22600.8 43734.1 22618 43766 22632.6 43799.8 22644.6 43835.5 22653.9 43873.2 22660.5 43912.7 22664.5 43954.3 22665.8 43999.4 22664.5 44041.9 22660.4 44081.9 22653.7 44119.2 22644.2 44154 22632.1 44186.2 22617.3 44215.8 22599.8 44242.8 22579.5 44267 22556.9 44287.9 22532.2 44305.6 22505.3 44320 22476.3 44331.3 22445.2 44339.3 22411.9 44344.2 22376.6 44345.8 22339.1 44344.7 22310.2 44341.6 22282.8 44336.5 22256.7 44329.2 22231.9 44319.9 22208.6 44308.6 22186.6 44295.1 22166.1 44279.6 22146.9 44262.2 22129.1 44242.8 22112.8 44221.6 22098.1 44198.5 22084.8 44173.5 22073 44146.7 22062.7 44118 22053.9 44087.4 22046.6 44087.4 22043.1 44121 22038.4 44152.7 22031.7 44182.5 22023 44210.4 22012.4 44236.4 21999.8 44260.5 21985.3 44282.6 21968.7 44302.8 21950.2 44320.9 21930.1 44336.6 21908.7 44349.8 21886.1 44360.6 21862.2 44369.1 21837.1 44375.1 21810.6 44378.7 21783 44379.9 21754 44378.2 21712.5 44373.1 21673.5 44364.6 21636.8 44352.8 21602.5 44337.5 21570.7 44318.8 21541.2 44296.8 21514.2 44271.3 21489.5 44242.7 21467.6 44211.2 21448.5 44176.8 21432.4 44139.5 21419.2 44099.3 21409 44056.2 21401.7 44010.2 21397.3 43961.3 21395.8"/><path d="M 51451.6 5525.9 50665.9 5525.9 50665.9 5693.2 51437.6 5693.2 51478.5 5694.5 51517 5698.5 51552.9 5705.2 51586.2 5714.6 51617 5726.7 51645.3 5741.5 51671 5758.9 51694.2 5779 51714.7 5801.7 51732.5 5826.7 51747.5 5854.1 51759.9 5883.9 51769.4 5916.1 51776.3 5950.6 51780.4 5987.6 51781.8 6026.9 51780.3 6067.3 51776.1 6105.5 51769 6141.3 51759.1 6174.8 51746.4 6206 51730.8 6234.9 51712.4 6261.4 51691.1 6285.7 51667.1 6307.3 51640.6 6326.1 51611.4 6342 51579.5 6355 51545.1 6365.1 51508.1 6372.3 51468.4 6376.6 51426.2 6378.1 50665.9 6378.1 50665.9 6544.5 51435.8 6544.5 51472.6 6543.5 51508.1 6540.5 51542.3 6535.6 51575.3 6528.6 51606.9 6519.7 51637.3 6508.8 51666.4 6495.9 51694.2 6481 51720.5 6464.3 51745.3 6446 51768.4 6426 51790 6404.4 51809.9 6381.1 51828.3 6356.2 51845 6329.6 51860.2 6301.5 51873.6 6271.8 51885.3 6240.8 51895.1 6208.6 51903.2 6175 51909.4 6140.1 51913.9 6104 51916.6 6066.5 51917.5 6027.7 51916.7 5990.5 51914.1 5954.4 51909.8 5919.5 51903.7 5885.9 51896 5853.4 51886.5 5822.1 51875.3 5792.1 51862.3 5763.2 51847.8 5735.8 51831.6 5709.9 51813.9 5685.6 51794.7 5663 51773.9 5641.9 51751.5 5622.3 51727.6 5604.4 51702.1 5588.1 51675.2 5573.5 51647 5560.9 51617.6 5550.2 51586.9 5541.4 51554.9 5534.6 51521.7 5529.8 51487.3 5526.9 51451.6 5525.9"/><path d="M 51900 6771.5 51788.8 6771.5 51739 6795 51692.3 6821.1 51648.6 6849.6 51607.9 6880.5 51569.6 6913.1 51533.2 6946.5 51498.7 6980.8 51466 7015.8 51404.8 7086.4 51348.2 7156.4 51293.9 7222.6 51239.6 7282.1 51212.1 7308.8 51184 7332.8 51155.2 7354.1 51125.7 7372.7 51095 7387.9 51062.2 7398.7 51027.5 7405.2 50990.9 7407.3 50966.2 7406.4 50942.9 7403.6 50921.1 7399 50900.7 7392.4 50881.7 7384.1 50864.1 7373.8 50847.9 7361.7 50833.2 7347.8 50820.1 7332.2 50808.7 7315.1 50799.1 7296.6 50791.2 7276.6 50785 7255.2 50780.7 7232.3 50778 7208 50777.2 7182.2 50778 7157.6 50780.6 7134.1 50784.9 7111.7 50790.8 7090.4 50798.5 7070.2 50807.9 7051.1 50819.1 7033.1 50831.9 7016.3 50846.3 7000.8 50862 6987 50879.2 6974.9 50897.7 6964.5 50917.6 6955.7 50938.9 6948.7 50961.6 6943.3 50985.6 6939.6 50970.7 6778.5 50934.7 6784.3 50900.5 6792.9 50868.2 6804.4 50837.8 6818.6 50809.3 6835.8 50782.7 6855.7 50758 6878.5 50735.1 6904.2 50714.6 6932.2 50696.8 6962.1 50681.7 6994 50669.4 7027.8 50659.8 7063.5 50653 7101.1 50648.9 7140.7 50647.5 7182.2 50648.9 7227.5 50653 7270.1 50659.9 7310 50669.5 7347.2 50681.9 7381.7 50697 7413.5 50714.9 7442.7 50735.6 7469.1 50758.7 7492.6 50784.2 7513 50812 7530.2 50842.1 7544.3 50874.5 7555.3 50909.2 7563.1 50946.3 7567.8 50985.6 7569.4 51021.5 7567.3 51057.2 7561.2 51092.8 7550.9 51128.4 7536.5 51163.8 7518.1 51199.3 7495.7 51234.8 7469.3 51270.3 7438.9 51310.6 7399.1 51360.7 7344.5 51420.5 7275.1 51490.1 7191 51530.3 7143.2 51568.4 7100.6 51604.5 7063.1 51638.6 7030.7 51671.3 7003 51703.5 6979.5 51735 6960.1 51766 6944.9 51766 7588.6 51900 7588.6 51900 6771.5"/><path d="M 109385.1 14109.7 109385.1 3670.3 96354.9 3670.3 96354.9 14109.7 109385.1 14109.7 M 109220 32385 93345 32385 93345 53340 109220 53340 109220 32385 M 100330 52070 96520 52070 97155 51435 M 96520 52070 97155 52705 M 100330 52070 100330 48260 99695 48895 M 100330 48260 100965 48895" fill="none" stroke-width="127"/><path d="M 59575 54865 59575 3555 87745 3555 87745 54865 59575 54865" fill="none" stroke-width="0.253"/><path d="M 114935 17780 115570 18415 M 114935 17780 113665 17780 113030 18415 M 113030 19685 113665 20320 114935 20320 115570 19685 M 118745 17780 120015 17780 M 118745 17780 118110 18415 M 118110 19685 118745 20320 M 118110 18415 117475 17780 116205 17780 115570 18415 M 115570 19685 116205 20320 117475 20320 118110 19685 M 120650 19685 120650 18415 120015 17780 M 120650 19685 120015 20320 118745 20320 M 113030 19685 113030 18415" fill="none" stroke-width="203.2"/><path d="M 119688.1 17589.5 119688.1 17106.9 M 119848.9 17321.4 119688.1 17589.5 M 119848.9 17321.4 120009.8 17589.5 120009.8 17106.9 M 120318.4 17482.3 120452.4 17589.5 120452.4 17106.9 M 120318.4 17106.9 120586.5 17106.9" fill="none" stroke-width="127"/><path d="M 114935 24130 115570 24765 M 114935 24130 113665 24130 113030 24765 M 113030 26035 113665 26670 114935 26670 115570 26035 M 118745 24130 120015 24130 M 118745 24130 118110 24765 M 118110 26035 118745 26670 M 118110 24765 117475 24130 116205 24130 115570 24765 M 115570 26035 116205 26670 117475 26670 118110 26035 M 120650 26035 120650 24765 120015 24130 M 120650 26035 120015 26670 118745 26670 M 113030 26035 113030 24765" fill="none" stroke-width="203.2"/><path d="M 119688.1 23939.5 119688.1 23456.9 M 119848.9 23671.4 119688.1 23939.5 M 119848.9 23671.4 120009.8 23939.5 120009.8 23456.9 M 120465.9 23939.5 120472.7 23939.3 120479.4 23938.7 120486.1 23937.8 120492.8 23936.5 120499.3 23934.8 120505.8 23932.7 120512.1 23930.3 120518.3 23927.5 120524.3 23924.4 120530.1 23921 120535.7 23917.2 120541.2 23913.2 120546.3 23908.8 120551.2 23904.1 120555.9 23899.2 120560.3 23894.1 120564.3 23888.6 120568.1 23883 120571.5 23877.2 120574.6 23871.2 120577.4 23865 120579.8 23858.7 120581.9 23852.2 120583.6 23845.7 120584.9 23839 120585.8 23832.3 120586.4 23825.6 120586.6 23818.8 M 120465.9 23939.5 120458.1 23939.3 120450.3 23938.7 120442.6 23937.7 120434.9 23936.4 120427.3 23934.6 120419.8 23932.5 120412.4 23930 120405.2 23927.1 120398.1 23923.9 120391.2 23920.3 120384.4 23916.4 120377.9 23912.1 120371.6 23907.5 120365.5 23902.6 120359.7 23897.4 120354.2 23891.9 120348.9 23886.2 120344 23880.2 120339.3 23873.9 120335 23867.5 120331 23860.8 120327.3 23853.9 120324 23846.8 120321 23839.6 120318.4 23832.3 M 120546.3 23725 120551.2 23729.9 120555.9 23735.1 120560.2 23740.6 120564.3 23746.3 120568.1 23752.2 120571.5 23758.3 120574.6 23764.6 120577.4 23771 120579.8 23777.6 120581.8 23784.2 120583.5 23791 120584.8 23797.9 120585.7 23804.8 120586.3 23811.8 120586.5 23818.8 M 120546.3 23725 120318.4 23456.9 120586.5 23456.9" fill="none" stroke-width="127"/><path d="M 114935 30480 115570 31115 M 114935 30480 113665 30480 113030 31115 M 113030 32385 113665 33020 114935 33020 115570 32385 M 118745 30480 120015 30480 M 118745 30480 118110 31115 M 118110 32385 118745 33020 M 118110 31115 117475 30480 116205 30480 115570 31115 M 115570 32385 116205 33020 117475 33020 118110 32385 M 120650 32385 120650 31115 120015 30480 M 120650 32385 120015 33020 118745 33020 M 113030 32385 113030 31115" fill="none" stroke-width="203.2"/><path d="M 119688.1 30289.5 119688.1 29806.9 M 119848.9 30021.4 119688.1 30289.5 M 119848.9 30021.4 120009.8 30289.5 120009.8 29806.9 M 120318.4 29806.9 120452.4 29806.9 120459.5 29807.1 120466.7 29807.7 120473.7 29808.6 120480.7 29809.9 120487.7 29811.6 120494.5 29813.7 120501.2 29816.1 120507.8 29818.9 120514.2 29822 120520.5 29825.5 120526.5 29829.3 120532.4 29833.4 120538 29837.8 120543.4 29842.5 120548.5 29847.4 120553.3 29852.7 120557.9 29858.2 120562.1 29863.9 120566.1 29869.9 120569.7 29876 120573 29882.4 120575.9 29888.9 120578.5 29895.5 120580.8 29902.3 120582.7 29909.2 120584.2 29916.2 120585.3 29923.2 120586.1 29930.3 120586.5 29937.4 120586.5 29944.6 120586.1 29951.7 120585.3 29958.8 120584.2 29965.8 120582.7 29972.8 120580.8 29979.7 120578.5 29986.5 120575.9 29993.1 120573 29999.6 120569.7 30006 120566.1 30012.1 120562.1 30018.1 120557.9 30023.8 120553.3 30029.3 120548.5 30034.6 120543.4 30039.5 120538 30044.2 120532.4 30048.6 120526.5 30052.7 120520.5 30056.5 120514.2 30060 120507.8 30063.1 120501.2 30065.9 120494.5 30068.3 120487.7 30070.4 120480.7 30072.1 120473.7 30073.4 120466.7 30074.3 120459.5 30074.9 120452.4 30075.1 M 120479.3 30289.5 120318.4 30289.5 M 120479.3 30289.5 120485.8 30289.3 120492.2 30288.7 120498.6 30287.7 120505 30286.4 120511.2 30284.6 120517.3 30282.5 120523.3 30280.1 120529.1 30277.2 120534.8 30274 120540.2 30270.5 120545.4 30266.7 120550.4 30262.5 120555.1 30258.1 120559.5 30253.4 120563.7 30248.4 120567.5 30243.2 120571 30237.8 120574.2 30232.1 120577.1 30226.3 120579.5 30220.3 120581.6 30214.2 120583.4 30208 120584.7 30201.6 120585.7 30195.2 120586.3 30188.8 120586.5 30182.3 120586.3 30175.8 120585.7 30169.4 120584.7 30163 120583.4 30156.6 120581.6 30150.4 120579.5 30144.3 120577.1 30138.3 120574.2 30132.5 120571 30126.8 120567.5 30121.4 120563.7 30116.2 120559.5 30111.2 120555.1 30106.5 120550.4 30102.1 120545.4 30097.9 120540.2 30094.1 120534.8 30090.6 120529.1 30087.4 120523.3 30084.5 120517.3 30082.1 120511.2 30080 120505 30078.2 120498.6 30076.9 120492.2 30075.9 120485.8 30075.3 120479.3 30075.1 M 120479.3 30075 120372 30075" fill="none" stroke-width="127"/><path d="M 114935 35560 115570 36195 M 114935 35560 113665 35560 113030 36195 M 113030 37465 113665 38100 114935 38100 115570 37465 M 118745 35560 120015 35560 M 118745 35560 118110 36195 M 118110 37465 118745 38100 M 118110 36195 117475 35560 116205 35560 115570 36195 M 115570 37465 116205 38100 117475 38100 118110 37465 M 120650 37465 120650 36195 120015 35560 M 120650 37465 120015 38100 118745 38100 M 113030 37465 113030 36195" fill="none" stroke-width="203.2"/><path d="M 119688.1 35369.5 119688.1 34886.9 M 119848.9 35101.4 119688.1 35369.5 M 119848.9 35101.4 120009.8 35369.5 120009.8 34886.9 M 120318.4 34994.1 120425.6 35369.5 M 120318.4 34994.1 120586.5 34994.1 M 120506.1 35101.4 120506.1 34886.9" fill="none" stroke-width="127"/><path d="M 44005.5 19304 6794.5 19304 M 44005.5 19304 44005.5 36576 6794.5 36576 6794.5 19304 M 6794.5 762 44005.5 762 44005.5 18034 6794.5 18034 6794.5 762" fill="none" stroke-width="152.4"/><path d="M 50317.5 9602.5 53822.5 9602.5 53822.5 3097.5 50317.5 3097.5 50317.5 9602.5" fill="none" stroke-width="127"/><path d="M 46970 8640 46970.2 8646.3 46970.8 8652.5 46971.8 8658.7 46973.1 8664.9 46974.9 8670.9 46977 8676.8 46979.5 8682.6 46982.4 8688.2 46985.6 8693.6 46989.1 8698.8 46992.9 8703.7 46997.1 8708.5 47001.5 8712.9 47006.3 8717.1 47011.2 8720.9 47016.4 8724.4 47021.8 8727.6 47027.4 8730.5 47033.2 8733 47039.1 8735.1 47045.1 8736.9 47051.3 8738.2 47057.5 8739.2 47063.7 8739.8 47070 8740 47076.3 8739.8 47082.5 8739.2 47088.7 8738.2 47094.9 8736.9 47100.9 8735.1 47106.8 8733 47112.6 8730.5 47118.2 8727.6 47123.6 8724.4 47128.8 8720.9 47133.7 8717.1 47138.5 8712.9 47142.9 8708.5 47147.1 8703.7 47150.9 8698.8 47154.4 8693.6 47157.6 8688.2 47160.5 8682.6 47163 8676.8 47165.1 8670.9 47166.9 8664.9 47168.2 8658.7 47169.2 8652.5 47169.8 8646.3 47170 8640 47169.8 8633.7 47169.2 8627.5 47168.2 8621.3 47166.9 8615.1 47165.1 8609.1 47163 8603.2 47160.5 8597.4 47157.6 8591.8 47154.4 8586.4 47150.9 8581.2 47147.1 8576.3 47142.9 8571.5 47138.5 8567.1 47133.7 8562.9 47128.8 8559.1 47123.6 8555.6 47118.2 8552.4 47112.6 8549.5 47106.8 8547 47100.9 8544.9 47094.9 8543.1 47088.7 8541.8 47082.5 8540.8 47076.3 8540.2 47070 8540 47063.7 8540.2 47057.5 8540.8 47051.3 8541.8 47045.1 8543.1 47039.1 8544.9 47033.2 8547 47027.4 8549.5 47021.8 8552.4 47016.4 8555.6 47011.2 8559.1 47006.3 8562.9 47001.5 8567.1 46997.1 8571.5 46992.9 8576.3 46989.1 8581.2 46985.6 8586.4 46982.4 8591.8 46979.5 8597.4 46977 8603.2 46974.9 8609.1 46973.1 8615.1 46971.8 8621.3 46970.8 8627.5 46970.2 8633.7 46970 8640" fill="none" stroke-width="200"/><path d="M 118110 12649.2 118745 13284.2 120015 13284.2 120650 12649.2 M 120650 11379.2 120015 10744.2 118745 10744.2 118110 11379.2 M 114935 13284.2 113665 13284.2 M 114935 13284.2 115570 12649.2 M 115570 11379.2 114935 10744.2 M 115570 12649.2 116205 13284.2 117475 13284.2 118110 12649.2 M 118110 11379.2 117475 10744.2 116205 10744.2 115570 11379.2 M 113030 11379.2 113030 12649.2 113665 13284.2 M 113030 11379.2 113665 10744.2 114935 10744.2 M 120650 11379.2 120650 12649.2" fill="none" stroke-width="203.2"/><path d="M 119658 13474.7 119443.5 13474.7 119443.5 13957.3 119658 13957.3 M 119604.4 13742.8 119443.5 13742.8 M 120041.3 13474.7 120047.8 13474.9 120054.2 13475.5 120060.6 13476.5 120067 13477.8 120073.2 13479.6 120079.3 13481.7 120085.3 13484.1 120091.1 13487 120096.8 13490.2 120102.2 13493.7 120107.4 13497.5 120112.4 13501.7 120117.1 13506.1 120121.5 13510.8 120125.7 13515.8 120129.5 13521 120133 13526.4 120136.2 13532.1 120139.1 13537.9 120141.5 13543.9 120143.6 13550 120145.4 13556.2 120146.7 13562.6 120147.7 13569 120148.3 13575.4 120148.5 13581.9 M 120041.3 13474.7 120031.9 13474.9 120022.5 13475.5 120013.1 13476.5 120003.8 13477.8 119994.6 13479.6 119985.4 13481.7 119976.3 13484.2 119967.3 13487.1 119958.5 13490.4 119949.8 13494 119941.3 13498 119932.9 13502.3 119924.8 13507 119916.8 13512 119909 13517.3 119901.5 13523 119894.2 13528.9 119887.2 13535.2 119880.4 13541.7 M 119893.9 13850.1 119894.1 13856.6 119894.7 13863 119895.7 13869.4 119897 13875.8 119898.8 13882 119900.9 13888.1 119903.3 13894.1 119906.2 13899.9 119909.4 13905.6 119912.9 13911 119916.7 13916.2 119920.9 13921.2 119925.3 13925.9 119930 13930.3 119935 13934.5 119940.2 13938.3 119945.6 13941.8 119951.3 13945 119957.1 13947.9 119963.1 13950.3 119969.2 13952.4 119975.4 13954.2 119981.8 13955.5 119988.2 13956.5 119994.6 13957.1 120001.1 13957.3 120009.7 13957.1 120018.3 13956.6 120026.9 13955.6 120035.4 13954.3 120043.9 13952.7 120052.3 13950.7 120060.6 13948.3 120068.8 13945.6 120076.8 13942.5 120084.8 13939.1 120092.5 13935.3 120100.1 13931.2 120107.5 13926.8 120114.7 13922.1 120121.8 13917.1 M 119947.5 13756.3 119942.2 13759.6 119937.1 13763.3 119932.2 13767.2 119927.5 13771.4 119923.1 13775.9 119919 13780.6 119915.1 13785.5 119911.5 13790.7 119908.2 13796.1 119905.3 13801.6 119902.7 13807.3 119900.4 13813.2 119898.4 13819.1 119896.8 13825.2 119895.5 13831.3 119894.6 13837.6 119894.1 13843.8 119893.9 13850.1 M 120094.9 13675.7 120100.2 13672.4 120105.3 13668.7 120110.2 13664.8 120114.9 13660.6 120119.3 13656.1 120123.4 13651.4 120127.3 13646.5 120130.9 13641.3 120134.2 13635.9 120137.1 13630.4 120139.7 13624.7 120142 13618.8 120144 13612.9 120145.6 13606.8 120146.9 13600.7 120147.8 13594.4 120148.3 13588.2 120148.5 13581.9 M 120094.9 13675.8 119947.5 13756.2 M 120515.2 13474.7 120622.4 13474.7 M 120515.2 13474.7 120508.7 13474.9 120502.3 13475.5 120495.9 13476.5 120489.5 13477.8 120483.3 13479.6 120477.2 13481.7 120471.2 13484.1 120465.4 13487 120459.7 13490.2 120454.3 13493.7 120449.1 13497.5 120444.1 13501.7 120439.4 13506.1 120435 13510.8 120430.8 13515.8 120427 13521 120423.5 13526.4 120420.3 13532.1 120417.4 13537.9 120415 13543.9 120412.9 13550 120411.1 13556.2 120409.8 13562.6 120408.8 13569 120408.2 13575.4 120408 13581.9 M 120407.9 13581.9 120407.9 13850.1 M 120408 13850.1 120408.2 13856.6 120408.8 13863 120409.8 13869.4 120411.1 13875.8 120412.9 13882 120415 13888.1 120417.4 13894.1 120420.3 13899.9 120423.5 13905.6 120427 13911 120430.8 13916.2 120435 13921.2 120439.4 13925.9 120444.1 13930.3 120449.1 13934.5 120454.3 13938.3 120459.7 13941.8 120465.4 13945 120471.2 13947.9 120477.2 13950.3 120483.3 13952.4 120489.5 13954.2 120495.9 13955.5 120502.3 13956.5 120508.7 13957.1 120515.2 13957.3 120622.4 13957.3 M 7160 51090 7160 55590 M 10660 57340 14660 57340 14660 56490 12160 56490 12160 55090 M 12160 51590 12160 50190 14660 50190 14660 49340 10660 49340 M 7160 44160 7160 39660 M 10660 45910 14660 45910 14660 45060 12160 45060 12160 43660 M 12160 40160 12160 38760 14660 38760 14660 37910 10660 37910" fill="none" stroke-width="127"/></g><g id="xbRTcI0VbvgV8TMkDC1-_top_copper"><use xlink:href="#n9wyaBM-cYMUYj4OVL4W_pad-10" x="107950" y="12700"/><use xlink:href="#n9wyaBM-cYMUYj4OVL4W_pad-10" x="107950" y="10160"/><use xlink:href="#n9wyaBM-cYMUYj4OVL4W_pad-10" x="107950" y="7620"/><use xlink:href="#n9wyaBM-cYMUYj4OVL4W_pad-10" x="107950" y="5080"/><path d="M 107569 41910 105791 41910 M 105791 44450 107569 44450 M 107569 39370 105791 39370 M 105791 36830 107569 36830 M 107569 34290 105791 34290 M 105791 46990 107569 46990 M 107569 49530 105791 49530 M 105791 52070 107569 52070" fill="none" stroke-width="1778"/><use xlink:href="#n9wyaBM-cYMUYj4OVL4W_pad-12" x="60960" y="48776"/><use xlink:href="#n9wyaBM-cYMUYj4OVL4W_pad-10" x="60960" y="46236"/><use xlink:href="#n9wyaBM-cYMUYj4OVL4W_pad-10" x="60960" y="43696"/><use xlink:href="#n9wyaBM-cYMUYj4OVL4W_pad-10" x="60960" y="41156"/><use xlink:href="#n9wyaBM-cYMUYj4OVL4W_pad-10" x="60960" y="38616"/><use xlink:href="#n9wyaBM-cYMUYj4OVL4W_pad-10" x="60960" y="36076"/><use xlink:href="#n9wyaBM-cYMUYj4OVL4W_pad-10" x="60960" y="33536"/><use xlink:href="#n9wyaBM-cYMUYj4OVL4W_pad-10" x="60960" y="30996"/><use xlink:href="#n9wyaBM-cYMUYj4OVL4W_pad-10" x="60960" y="28456"/><use xlink:href="#n9wyaBM-cYMUYj4OVL4W_pad-10" x="60960" y="25916"/><use xlink:href="#n9wyaBM-cYMUYj4OVL4W_pad-10" x="60960" y="23376"/><use xlink:href="#n9wyaBM-cYMUYj4OVL4W_pad-10" x="60960" y="20836"/><use xlink:href="#n9wyaBM-cYMUYj4OVL4W_pad-10" x="60960" y="18296"/><use xlink:href="#n9wyaBM-cYMUYj4OVL4W_pad-10" x="60960" y="15756"/><use xlink:href="#n9wyaBM-cYMUYj4OVL4W_pad-10" x="60960" y="13216"/><use xlink:href="#n9wyaBM-cYMUYj4OVL4W_pad-10" x="86210" y="13216"/><use xlink:href="#n9wyaBM-cYMUYj4OVL4W_pad-10" x="86210" y="15756"/><use xlink:href="#n9wyaBM-cYMUYj4OVL4W_pad-10" x="86210" y="18296"/><use xlink:href="#n9wyaBM-cYMUYj4OVL4W_pad-10" x="86210" y="20836"/><use xlink:href="#n9wyaBM-cYMUYj4OVL4W_pad-10" x="86210" y="23376"/><use xlink:href="#n9wyaBM-cYMUYj4OVL4W_pad-10" x="86210" y="25916"/><use xlink:href="#n9wyaBM-cYMUYj4OVL4W_pad-10" x="86210" y="28456"/><use xlink:href="#n9wyaBM-cYMUYj4OVL4W_pad-10" x="86210" y="30996"/><use xlink:href="#n9wyaBM-cYMUYj4OVL4W_pad-10" x="86210" y="33536"/><use xlink:href="#n9wyaBM-cYMUYj4OVL4W_pad-10" x="86210" y="36076"/><use xlink:href="#n9wyaBM-cYMUYj4OVL4W_pad-10" x="86210" y="38616"/><use xlink:href="#n9wyaBM-cYMUYj4OVL4W_pad-10" x="86210" y="41156"/><use xlink:href="#n9wyaBM-cYMUYj4OVL4W_pad-10" x="86210" y="43696"/><use xlink:href="#n9wyaBM-cYMUYj4OVL4W_pad-10" x="86210" y="46236"/><use xlink:href="#n9wyaBM-cYMUYj4OVL4W_pad-10" x="86210" y="48776"/><use xlink:href="#n9wyaBM-cYMUYj4OVL4W_pad-13" x="119380" y="19050"/><use xlink:href="#n9wyaBM-cYMUYj4OVL4W_pad-13" x="116840" y="19050"/><use xlink:href="#n9wyaBM-cYMUYj4OVL4W_pad-13" x="114300" y="19050"/><use xlink:href="#n9wyaBM-cYMUYj4OVL4W_pad-13" x="119380" y="25400"/><use xlink:href="#n9wyaBM-cYMUYj4OVL4W_pad-13" x="116840" y="25400"/><use xlink:href="#n9wyaBM-cYMUYj4OVL4W_pad-13" x="114300" y="25400"/><use xlink:href="#n9wyaBM-cYMUYj4OVL4W_pad-13" x="119380" y="31750"/><use xlink:href="#n9wyaBM-cYMUYj4OVL4W_pad-13" x="116840" y="31750"/><use xlink:href="#n9wyaBM-cYMUYj4OVL4W_pad-13" x="114300" y="31750"/><use xlink:href="#n9wyaBM-cYMUYj4OVL4W_pad-13" x="119380" y="36830"/><use xlink:href="#n9wyaBM-cYMUYj4OVL4W_pad-13" x="116840" y="36830"/><use xlink:href="#n9wyaBM-cYMUYj4OVL4W_pad-13" x="114300" y="36830"/><path d="M 43228 24003 42370 24003 M 42370 31873 43228 31873 M 8228 31873 7370 31873 M 7370 24003 8228 24003 M 42370 5461 43228 5461 M 43228 13331 42370 13331 M 8228 13331 7370 13331 M 7370 5461 8228 5461" fill="none" stroke-width="858"/><path d="M 48139.7 8244.7 49310.3 8244.7 M 48139.7 8244.7 48139.7 9035.3 49310.3 9035.3 49310.3 8244.7 M 49310.3 8377.2 48139.7 8377.2 M 48139.7 8509.7 49310.3 8509.7 M 49310.3 8642.2 48139.7 8642.2 M 48139.7 8774.7 49310.3 8774.7 M 49310.3 8907.2 48139.7 8907.2 M 48139.7 5954.7 49310.3 5954.7 M 48139.7 5954.7 48139.7 6745.3 49310.3 6745.3 49310.3 5954.7 M 49310.3 6087.2 48139.7 6087.2 M 48139.7 6219.7 49310.3 6219.7 M 49310.3 6352.2 48139.7 6352.2 M 48139.7 6484.7 49310.3 6484.7 M 49310.3 6617.2 48139.7 6617.2 M 48139.7 3664.7 49310.3 3664.7 M 48139.7 3664.7 48139.7 4455.3 49310.3 4455.3 49310.3 3664.7 M 49310.3 3797.2 48139.7 3797.2 M 48139.7 3929.7 49310.3 3929.7 M 49310.3 4062.2 48139.7 4062.2 M 48139.7 4194.7 49310.3 4194.7 M 49310.3 4327.2 48139.7 4327.2" fill="none" stroke-width="139.5"/><path d="M 54858.2 4828.2 55971.8 4828.2 M 54858.2 4828.2 54858.2 7871.8 55971.8 7871.8 55971.8 4828.2 M 55971.8 5014.9 54858.2 5014.9 M 54858.2 5201.6 55971.8 5201.6 M 55971.8 5388.3 54858.2 5388.3 M 54858.2 5575 55971.8 5575 M 55971.8 5761.7 54858.2 5761.7 M 54858.2 5948.4 55971.8 5948.4 M 55971.8 6135.1 54858.2 6135.1 M 54858.2 6321.8 55971.8 6321.8 M 55971.8 6508.5 54858.2 6508.5 M 54858.2 6695.2 55971.8 6695.2 M 55971.8 6881.9 54858.2 6881.9 M 54858.2 7068.6 55971.8 7068.6 M 55971.8 7255.3 54858.2 7255.3 M 54858.2 7442 55971.8 7442 M 55971.8 7628.7 54858.2 7628.7 M 54858.2 7815.4 55971.8 7815.4" fill="none" stroke-width="196.5"/><use xlink:href="#n9wyaBM-cYMUYj4OVL4W_pad-13" x="114300" y="12014.2"/><use xlink:href="#n9wyaBM-cYMUYj4OVL4W_pad-13" x="116840" y="12014.2"/><use xlink:href="#n9wyaBM-cYMUYj4OVL4W_pad-13" x="119380" y="12014.2"/><use xlink:href="#n9wyaBM-cYMUYj4OVL4W_pad-17" x="13860" y="52340"/><use xlink:href="#n9wyaBM-cYMUYj4OVL4W_pad-17" x="13860" y="54340"/><use xlink:href="#n9wyaBM-cYMUYj4OVL4W_pad-18" x="8660" y="49940"/><use xlink:href="#n9wyaBM-cYMUYj4OVL4W_pad-18" x="8660" y="56740"/><use xlink:href="#n9wyaBM-cYMUYj4OVL4W_pad-17" x="13860" y="40910"/><use xlink:href="#n9wyaBM-cYMUYj4OVL4W_pad-17" x="13860" y="42910"/><use xlink:href="#n9wyaBM-cYMUYj4OVL4W_pad-18" x="8660" y="38510"/><use xlink:href="#n9wyaBM-cYMUYj4OVL4W_pad-18" x="8660" y="45310"/><path d="M 92500 19500 107000 34000 M 92500 19500 86500 13500 86210 13216 M 106680 34290 107000 34000 M 93000 19500 107500 5000 M 93000 19500 92500 19500 M 107500 5000 107950 5080 M 86500 16000 86500 17000 106500 37000 M 86500 16000 86210 15756 M 106500 37000 106680 36830 M 108000 9000 108000 8000 M 108000 9000 109000 10000 109000 34500 107000 36500 M 108000 8000 107950 7620 M 107000 36500 106680 36830 M 95000 48500 86500 48500 M 95000 48500 105500 38000 118000 38000 119000 37000 M 86500 48500 86210 48776 M 119000 37000 119380 36830 M 53000 6500 49000 6500 M 53000 6500 59500 13000 60500 13000 M 49000 6500 48725 6350 M 60500 13000 60960 13216 M 8000 12000 8000 5500 M 8000 12000 16500 20500 16500 49500 14000 52000 M 8000 5500 7799 5461 M 14000 52000 13860 52340 M 7500 22500 7500 13500 M 7500 22500 6500 23500 6500 51000 11000 55500 13000 55500 14000 54500 M 7500 13500 7799 13331 M 13860 54340 14000 54500 M 117000 25000 117000 19500 116840 19050 M 117000 25000 116840 25400 M 48500 4500 41500 11500 41500 23000 42500 24000 M 48500 4500 48725 4060 M 42799 24003 42500 24000 M 115500 20500 116500 19500 M 115500 20500 114000 20500 109500 16000 109500 5500 108000 4000 49000 4000 M 116500 19500 116840 19050 M 49000 4000 48725 4060 M 117000 32000 117000 36500 M 117000 32000 116840 31750 M 117000 36500 116840 36830 M 45500 5500 43000 5500 M 45500 5500 48000 3000 107500 3000 116500 12000 M 43000 5500 42799 5461 M 116500 12000 116840 12014.2 M 114500 32000 114500 36500 M 114500 32000 114300 31750 M 114500 36500 114300 36830 M 119000 14500 119000 12500 M 119000 14500 114500 19000 M 119000 12500 119380 12014.2 M 114500 19000 114300 19050 M 114500 25500 114500 31500 114300 31750 M 114500 25500 114300 25400 M 48500 9000 47000 9000 43000 13000 M 48500 9000 48725 8640 M 43000 13000 42799 13331 M 8000 24000 8000 30500 13500 36000 13500 40500 M 8000 24000 7799 24003 M 13500 40500 13860 40910 M 8000 35000 8000 32000 M 8000 35000 11000 38000 11000 41500 12000 42500 13500 42500 M 8000 32000 7799 31873 M 13500 42500 13860 42910" fill="none" stroke-width="152.4"/></g><g id="xbRTcI0VbvgV8TMkDC1-_top_solderpaste"><path d="M 49310.3 8244.7 48139.7 8244.7 48139.7 9035.3 49310.3 9035.3 49310.3 8244.7 M 49310.3 8377.2 48139.7 8377.2 M 48139.7 8509.7 49310.3 8509.7 M 49310.3 8642.2 48139.7 8642.2 M 48139.7 8774.7 49310.3 8774.7 M 49310.3 8907.2 48139.7 8907.2 M 48139.7 5954.7 49310.3 5954.7 M 48139.7 5954.7 48139.7 6745.3 49310.3 6745.3 49310.3 5954.7 M 49310.3 6087.2 48139.7 6087.2 M 48139.7 6219.7 49310.3 6219.7 M 49310.3 6352.2 48139.7 6352.2 M 48139.7 6484.7 49310.3 6484.7 M 49310.3 6617.2 48139.7 6617.2 M 48139.7 3664.7 49310.3 3664.7 M 48139.7 3664.7 48139.7 4455.3 49310.3 4455.3 49310.3 3664.7 M 49310.3 3797.2 48139.7 3797.2 M 48139.7 3929.7 49310.3 3929.7 M 49310.3 4062.2 48139.7 4062.2 M 48139.7 4194.7 49310.3 4194.7 M 49310.3 4327.2 48139.7 4327.2" fill="none" stroke-width="139.5"/><path d="M 54858.2 4828.2 55971.8 4828.2 M 54858.2 4828.2 54858.2 7871.8 55971.8 7871.8 55971.8 4828.2 M 55971.8 5014.9 54858.2 5014.9 M 54858.2 5201.6 55971.8 5201.6 M 55971.8 5388.3 54858.2 5388.3 M 54858.2 5575 55971.8 5575 M 55971.8 5761.7 54858.2 5761.7 M 54858.2 5948.4 55971.8 5948.4 M 55971.8 6135.1 54858.2 6135.1 M 54858.2 6321.8 55971.8 6321.8 M 55971.8 6508.5 54858.2 6508.5 M 54858.2 6695.2 55971.8 6695.2 M 55971.8 6881.9 54858.2 6881.9 M 54858.2 7068.6 55971.8 7068.6 M 55971.8 7255.3 54858.2 7255.3 M 54858.2 7442 55971.8 7442 M 55971.8 7628.7 54858.2 7628.7 M 54858.2 7815.4 55971.8 7815.4" fill="none" stroke-width="196.5"/><use xlink:href="#s7JdhH6Uug6GZ1yAoGH8_pad-12" x="13860" y="52340"/><use xlink:href="#s7JdhH6Uug6GZ1yAoGH8_pad-12" x="13860" y="54340"/><use xlink:href="#s7JdhH6Uug6GZ1yAoGH8_pad-13" x="8660" y="49940"/><use xlink:href="#s7JdhH6Uug6GZ1yAoGH8_pad-13" x="8660" y="56740"/><use xlink:href="#s7JdhH6Uug6GZ1yAoGH8_pad-12" x="13860" y="40910"/><use xlink:href="#s7JdhH6Uug6GZ1yAoGH8_pad-12" x="13860" y="42910"/><use xlink:href="#s7JdhH6Uug6GZ1yAoGH8_pad-13" x="8660" y="38510"/><use xlink:href="#s7JdhH6Uug6GZ1yAoGH8_pad-13" x="8660" y="45310"/></g><g id="xbRTcI0VbvgV8TMkDC1-_top_drill1"><use xlink:href="#M24r0OHOdb3Ik35MUQVf_pad-1" x="2516" y="57484"/><use xlink:href="#M24r0OHOdb3Ik35MUQVf_pad-1" x="127516" y="57484"/><use xlink:href="#M24r0OHOdb3Ik35MUQVf_pad-1" x="2516" y="2484"/><use xlink:href="#M24r0OHOdb3Ik35MUQVf_pad-1" x="127516" y="2484"/><use xlink:href="#M24r0OHOdb3Ik35MUQVf_pad-2" x="119380" y="19050"/><use xlink:href="#M24r0OHOdb3Ik35MUQVf_pad-2" x="119380" y="12014"/><use xlink:href="#M24r0OHOdb3Ik35MUQVf_pad-2" x="116840" y="19050"/><use xlink:href="#M24r0OHOdb3Ik35MUQVf_pad-2" x="114300" y="19050"/><use xlink:href="#M24r0OHOdb3Ik35MUQVf_pad-2" x="119380" y="25400"/><use xlink:href="#M24r0OHOdb3Ik35MUQVf_pad-2" x="116840" y="25400"/><use xlink:href="#M24r0OHOdb3Ik35MUQVf_pad-2" x="114300" y="25400"/><use xlink:href="#M24r0OHOdb3Ik35MUQVf_pad-2" x="119380" y="31750"/><use xlink:href="#M24r0OHOdb3Ik35MUQVf_pad-2" x="116840" y="31750"/><use xlink:href="#M24r0OHOdb3Ik35MUQVf_pad-2" x="114300" y="31750"/><use xlink:href="#M24r0OHOdb3Ik35MUQVf_pad-2" x="119380" y="36830"/><use xlink:href="#M24r0OHOdb3Ik35MUQVf_pad-2" x="116840" y="36830"/><use xlink:href="#M24r0OHOdb3Ik35MUQVf_pad-2" x="114300" y="36830"/><use xlink:href="#M24r0OHOdb3Ik35MUQVf_pad-2" x="114300" y="12014"/><use xlink:href="#M24r0OHOdb3Ik35MUQVf_pad-2" x="116840" y="12014"/><use xlink:href="#M24r0OHOdb3Ik35MUQVf_pad-3" x="106680" y="52070"/><use xlink:href="#M24r0OHOdb3Ik35MUQVf_pad-3" x="106680" y="49530"/><use xlink:href="#M24r0OHOdb3Ik35MUQVf_pad-3" x="106680" y="41910"/><use xlink:href="#M24r0OHOdb3Ik35MUQVf_pad-3" x="106680" y="44450"/><use xlink:href="#M24r0OHOdb3Ik35MUQVf_pad-3" x="106680" y="39370"/><use xlink:href="#M24r0OHOdb3Ik35MUQVf_pad-3" x="106680" y="36830"/><use xlink:href="#M24r0OHOdb3Ik35MUQVf_pad-3" x="106680" y="34290"/><use xlink:href="#M24r0OHOdb3Ik35MUQVf_pad-3" x="106680" y="46990"/><use xlink:href="#M24r0OHOdb3Ik35MUQVf_pad-4" x="60960" y="48776"/><use xlink:href="#M24r0OHOdb3Ik35MUQVf_pad-5" x="60960" y="20836"/><use xlink:href="#M24r0OHOdb3Ik35MUQVf_pad-5" x="60960" y="18296"/><use xlink:href="#M24r0OHOdb3Ik35MUQVf_pad-5" x="60960" y="15756"/><use xlink:href="#M24r0OHOdb3Ik35MUQVf_pad-5" x="60960" y="13216"/><use xlink:href="#M24r0OHOdb3Ik35MUQVf_pad-5" x="86210" y="13216"/><use xlink:href="#M24r0OHOdb3Ik35MUQVf_pad-5" x="86210" y="15756"/><use xlink:href="#M24r0OHOdb3Ik35MUQVf_pad-5" x="86210" y="18296"/><use xlink:href="#M24r0OHOdb3Ik35MUQVf_pad-5" x="107950" y="5080"/><use xlink:href="#M24r0OHOdb3Ik35MUQVf_pad-5" x="86210" y="23376"/><use xlink:href="#M24r0OHOdb3Ik35MUQVf_pad-5" x="86210" y="25916"/><use xlink:href="#M24r0OHOdb3Ik35MUQVf_pad-5" x="86210" y="28456"/><use xlink:href="#M24r0OHOdb3Ik35MUQVf_pad-5" x="86210" y="30996"/><use xlink:href="#M24r0OHOdb3Ik35MUQVf_pad-5" x="86210" y="33536"/><use xlink:href="#M24r0OHOdb3Ik35MUQVf_pad-5" x="86210" y="36076"/><use xlink:href="#M24r0OHOdb3Ik35MUQVf_pad-5" x="86210" y="38616"/><use xlink:href="#M24r0OHOdb3Ik35MUQVf_pad-5" x="86210" y="41156"/><use xlink:href="#M24r0OHOdb3Ik35MUQVf_pad-5" x="86210" y="43696"/><use xlink:href="#M24r0OHOdb3Ik35MUQVf_pad-5" x="86210" y="46236"/><use xlink:href="#M24r0OHOdb3Ik35MUQVf_pad-5" x="86210" y="48776"/><use xlink:href="#M24r0OHOdb3Ik35MUQVf_pad-5" x="107950" y="12700"/><use xlink:href="#M24r0OHOdb3Ik35MUQVf_pad-5" x="107950" y="10160"/><use xlink:href="#M24r0OHOdb3Ik35MUQVf_pad-5" x="107950" y="7620"/><use xlink:href="#M24r0OHOdb3Ik35MUQVf_pad-5" x="60960" y="46236"/><use xlink:href="#M24r0OHOdb3Ik35MUQVf_pad-5" x="60960" y="43696"/><use xlink:href="#M24r0OHOdb3Ik35MUQVf_pad-5" x="60960" y="41156"/><use xlink:href="#M24r0OHOdb3Ik35MUQVf_pad-5" x="60960" y="38616"/><use xlink:href="#M24r0OHOdb3Ik35MUQVf_pad-5" x="60960" y="36076"/><use xlink:href="#M24r0OHOdb3Ik35MUQVf_pad-5" x="60960" y="33536"/><use xlink:href="#M24r0OHOdb3Ik35MUQVf_pad-5" x="60960" y="30996"/><use xlink:href="#M24r0OHOdb3Ik35MUQVf_pad-5" x="60960" y="28456"/><use xlink:href="#M24r0OHOdb3Ik35MUQVf_pad-5" x="86210" y="20836"/><use xlink:href="#M24r0OHOdb3Ik35MUQVf_pad-5" x="60960" y="25916"/><use xlink:href="#M24r0OHOdb3Ik35MUQVf_pad-5" x="60960" y="23376"/><use xlink:href="#M24r0OHOdb3Ik35MUQVf_pad-6" x="-21590" y="58420"/><use xlink:href="#M24r0OHOdb3Ik35MUQVf_pad-6" x="7799" y="24003"/><use xlink:href="#M24r0OHOdb3Ik35MUQVf_pad-6" x="42799" y="5461"/><use xlink:href="#M24r0OHOdb3Ik35MUQVf_pad-6" x="42799" y="13331"/><use xlink:href="#M24r0OHOdb3Ik35MUQVf_pad-6" x="7799" y="13331"/><use xlink:href="#M24r0OHOdb3Ik35MUQVf_pad-6" x="7799" y="5461"/><use xlink:href="#M24r0OHOdb3Ik35MUQVf_pad-6" x="42799" y="24003"/><use xlink:href="#M24r0OHOdb3Ik35MUQVf_pad-6" x="42799" y="31873"/><use xlink:href="#M24r0OHOdb3Ik35MUQVf_pad-6" x="7799" y="31873"/></g><clipPath id="xbRTcI0VbvgV8TMkDC1-_top_outline"><path d="M 0 0 130000 0 130000 60000 0 60000 0 0" fill="none" stroke-width="254"/></clipPath><mask id="xbRTcI0VbvgV8TMkDC1-_top_mech-mask"><g fill="#000" stroke="#000"><rect x="0" y="0" width="130000" height="60000" fill="#fff"/><use xlink:href="#xbRTcI0VbvgV8TMkDC1-_top_drill1"/></g></mask><mask id="xbRTcI0VbvgV8TMkDC1-_top_cf-mask"><g fill="#fff" stroke="#fff"><use xlink:href="#xbRTcI0VbvgV8TMkDC1-_top_soldermask"/></g></mask><mask id="xbRTcI0VbvgV8TMkDC1-_top_sm-mask"><g fill="#000" stroke="#000"><rect x="0" y="0" width="130000" height="60000" fill="#fff"/><use xlink:href="#xbRTcI0VbvgV8TMkDC1-_top_soldermask"/></g></mask></defs><g transform="translate(0,60000) scale(1,-1)"><g mask="url(#xbRTcI0VbvgV8TMkDC1-_top_mech-mask)" clip-path="url(#xbRTcI0VbvgV8TMkDC1-_top_outline)"><rect x="0" y="0" width="130000" height="60000" fill="currentColor" class="xbRTcI0VbvgV8TMkDC1-_fr4"/><use xlink:href="#xbRTcI0VbvgV8TMkDC1-_top_copper" fill="currentColor" stroke="currentColor" class="xbRTcI0VbvgV8TMkDC1-_cu"/><use xlink:href="#xbRTcI0VbvgV8TMkDC1-_top_copper" fill="currentColor" stroke="currentColor" class="xbRTcI0VbvgV8TMkDC1-_cf" mask="url(#xbRTcI0VbvgV8TMkDC1-_top_cf-mask)"/><g mask="url(#xbRTcI0VbvgV8TMkDC1-_top_sm-mask)"><rect x="0" y="0" width="130000" height="60000" fill="currentColor" class="xbRTcI0VbvgV8TMkDC1-_sm"/><use xlink:href="#xbRTcI0VbvgV8TMkDC1-_top_silkscreen" fill="currentColor" stroke="currentColor" class="xbRTcI0VbvgV8TMkDC1-_ss"/></g><use xlink:href="#xbRTcI0VbvgV8TMkDC1-_top_solderpaste" fill="currentColor" stroke="currentColor" class="xbRTcI0VbvgV8TMkDC1-_sp"/></g></g></svg>